<svg width="3657.5000000000005" height="1039.5" xmlns="http://www.w3.org/2000/svg" xmlns:xlink="http://www.w3.org/1999/xlink"><line x1="1278.125" y1="7.0" x2="308.75" y2="31.0" style="stroke:black; stroke-width:1px;" />
<line x1="308.75" y1="38.0" x2="308.75" y2="62.0" style="stroke:black; stroke-width:1px;" />
<line x1="308.75" y1="69.0" x2="14.0" y2="93.0" style="stroke:black; stroke-width:1px;" />
<line x1="308.75" y1="69.0" x2="51.0" y2="93.0" style="stroke:black; stroke-width:1px;" />
<line x1="308.75" y1="69.0" x2="91.5" y2="93.0" style="stroke:black; stroke-width:1px;" />
<line x1="308.75" y1="69.0" x2="121.5" y2="93.0" style="stroke:black; stroke-width:1px;" />
<line x1="308.75" y1="69.0" x2="198.0" y2="93.0" style="stroke:black; stroke-width:1px;" />
<line x1="198.0" y1="100.0" x2="149.0" y2="124.0" style="stroke:black; stroke-width:1px;" />
<line x1="198.0" y1="100.0" x2="169.0" y2="124.0" style="stroke:black; stroke-width:1px;" />
<line x1="198.0" y1="100.0" x2="208.0" y2="124.0" style="stroke:black; stroke-width:1px;" />
<line x1="208.0" y1="131.0" x2="208.0" y2="155.0" style="stroke:black; stroke-width:1px;" />
<line x1="198.0" y1="100.0" x2="247.0" y2="124.0" style="stroke:black; stroke-width:1px;" />
<line x1="308.75" y1="69.0" x2="333.0" y2="93.0" style="stroke:black; stroke-width:1px;" />
<line x1="333.0" y1="100.0" x2="284.0" y2="124.0" style="stroke:black; stroke-width:1px;" />
<line x1="333.0" y1="100.0" x2="304.0" y2="124.0" style="stroke:black; stroke-width:1px;" />
<line x1="333.0" y1="100.0" x2="343.0" y2="124.0" style="stroke:black; stroke-width:1px;" />
<line x1="343.0" y1="131.0" x2="343.0" y2="155.0" style="stroke:black; stroke-width:1px;" />
<line x1="333.0" y1="100.0" x2="382.0" y2="124.0" style="stroke:black; stroke-width:1px;" />
<line x1="308.75" y1="69.0" x2="524.0" y2="93.0" style="stroke:black; stroke-width:1px;" />
<line x1="524.0" y1="100.0" x2="418.0" y2="124.0" style="stroke:black; stroke-width:1px;" />
<line x1="524.0" y1="100.0" x2="454.0" y2="124.0" style="stroke:black; stroke-width:1px;" />
<line x1="524.0" y1="100.0" x2="493.0" y2="124.0" style="stroke:black; stroke-width:1px;" />
<line x1="493.0" y1="131.0" x2="493.0" y2="155.0" style="stroke:black; stroke-width:1px;" />
<line x1="524.0" y1="100.0" x2="536.5" y2="124.0" style="stroke:black; stroke-width:1px;" />
<line x1="524.0" y1="100.0" x2="585.5" y2="124.0" style="stroke:black; stroke-width:1px;" />
<line x1="585.5" y1="131.0" x2="550.5" y2="155.0" style="stroke:black; stroke-width:1px;" />
<line x1="550.5" y1="162.0" x2="506.0" y2="186.0" style="stroke:black; stroke-width:1px;" />
<line x1="550.5" y1="162.0" x2="550.5" y2="186.0" style="stroke:black; stroke-width:1px;" />
<line x1="550.5" y1="193.0" x2="513.0" y2="217.0" style="stroke:black; stroke-width:1px;" />
<line x1="513.0" y1="224.0" x2="513.0" y2="248.0" style="stroke:black; stroke-width:1px;" />
<line x1="550.5" y1="193.0" x2="550.5" y2="217.0" style="stroke:black; stroke-width:1px;" />
<line x1="550.5" y1="193.0" x2="588.0" y2="217.0" style="stroke:black; stroke-width:1px;" />
<line x1="588.0" y1="224.0" x2="588.0" y2="248.0" style="stroke:black; stroke-width:1px;" />
<line x1="550.5" y1="162.0" x2="595.0" y2="186.0" style="stroke:black; stroke-width:1px;" />
<line x1="585.5" y1="131.0" x2="585.5" y2="155.0" style="stroke:black; stroke-width:1px;" />
<line x1="585.5" y1="131.0" x2="620.5" y2="155.0" style="stroke:black; stroke-width:1px;" />
<line x1="620.5" y1="162.0" x2="620.5" y2="186.0" style="stroke:black; stroke-width:1px;" />
<line x1="524.0" y1="100.0" x2="630.0" y2="124.0" style="stroke:black; stroke-width:1px;" />
<line x1="308.75" y1="69.0" x2="587.0" y2="93.0" style="stroke:black; stroke-width:1px;" />
<line x1="308.75" y1="69.0" x2="603.5" y2="93.0" style="stroke:black; stroke-width:1px;" />
<line x1="1278.125" y1="7.0" x2="662.0" y2="31.0" style="stroke:black; stroke-width:1px;" />
<line x1="662.0" y1="38.0" x2="662.0" y2="62.0" style="stroke:black; stroke-width:1px;" />
<line x1="662.0" y1="69.0" x2="618.5" y2="93.0" style="stroke:black; stroke-width:1px;" />
<line x1="662.0" y1="69.0" x2="633.5" y2="93.0" style="stroke:black; stroke-width:1px;" />
<line x1="662.0" y1="69.0" x2="669.5" y2="93.0" style="stroke:black; stroke-width:1px;" />
<line x1="669.5" y1="100.0" x2="669.5" y2="124.0" style="stroke:black; stroke-width:1px;" />
<line x1="662.0" y1="69.0" x2="705.5" y2="93.0" style="stroke:black; stroke-width:1px;" />
<line x1="1278.125" y1="7.0" x2="777.0" y2="31.0" style="stroke:black; stroke-width:1px;" />
<line x1="777.0" y1="38.0" x2="777.0" y2="62.0" style="stroke:black; stroke-width:1px;" />
<line x1="777.0" y1="69.0" x2="720.5" y2="93.0" style="stroke:black; stroke-width:1px;" />
<line x1="777.0" y1="69.0" x2="740.0" y2="93.0" style="stroke:black; stroke-width:1px;" />
<line x1="777.0" y1="69.0" x2="789.0" y2="93.0" style="stroke:black; stroke-width:1px;" />
<line x1="789.0" y1="100.0" x2="789.0" y2="124.0" style="stroke:black; stroke-width:1px;" />
<line x1="789.0" y1="131.0" x2="789.0" y2="155.0" style="stroke:black; stroke-width:1px;" />
<line x1="777.0" y1="69.0" x2="833.5" y2="93.0" style="stroke:black; stroke-width:1px;" />
<line x1="1278.125" y1="7.0" x2="1009.0" y2="31.0" style="stroke:black; stroke-width:1px;" />
<line x1="1009.0" y1="38.0" x2="1009.0" y2="62.0" style="stroke:black; stroke-width:1px;" />
<line x1="1009.0" y1="69.0" x2="894.0" y2="93.0" style="stroke:black; stroke-width:1px;" />
<line x1="1009.0" y1="69.0" x2="948.5" y2="93.0" style="stroke:black; stroke-width:1px;" />
<line x1="948.5" y1="100.0" x2="853.5" y2="124.0" style="stroke:black; stroke-width:1px;" />
<line x1="853.5" y1="131.0" x2="853.5" y2="155.0" style="stroke:black; stroke-width:1px;" />
<line x1="853.5" y1="162.0" x2="778.0" y2="186.0" style="stroke:black; stroke-width:1px;" />
<line x1="778.0" y1="193.0" x2="778.0" y2="217.0" style="stroke:black; stroke-width:1px;" />
<line x1="853.5" y1="162.0" x2="817.0" y2="186.0" style="stroke:black; stroke-width:1px;" />
<line x1="853.5" y1="162.0" x2="843.0" y2="186.0" style="stroke:black; stroke-width:1px;" />
<line x1="853.5" y1="162.0" x2="872.0" y2="186.0" style="stroke:black; stroke-width:1px;" />
<line x1="853.5" y1="162.0" x2="902.0" y2="186.0" style="stroke:black; stroke-width:1px;" />
<line x1="853.5" y1="162.0" x2="929.0" y2="186.0" style="stroke:black; stroke-width:1px;" />
<line x1="948.5" y1="100.0" x2="948.5" y2="124.0" style="stroke:black; stroke-width:1px;" />
<line x1="948.5" y1="100.0" x2="1043.5" y2="124.0" style="stroke:black; stroke-width:1px;" />
<line x1="1043.5" y1="131.0" x2="1043.5" y2="155.0" style="stroke:black; stroke-width:1px;" />
<line x1="1043.5" y1="162.0" x2="968.0" y2="186.0" style="stroke:black; stroke-width:1px;" />
<line x1="968.0" y1="193.0" x2="968.0" y2="217.0" style="stroke:black; stroke-width:1px;" />
<line x1="1043.5" y1="162.0" x2="1007.0" y2="186.0" style="stroke:black; stroke-width:1px;" />
<line x1="1043.5" y1="162.0" x2="1033.0" y2="186.0" style="stroke:black; stroke-width:1px;" />
<line x1="1043.5" y1="162.0" x2="1062.0" y2="186.0" style="stroke:black; stroke-width:1px;" />
<line x1="1043.5" y1="162.0" x2="1092.0" y2="186.0" style="stroke:black; stroke-width:1px;" />
<line x1="1043.5" y1="162.0" x2="1119.0" y2="186.0" style="stroke:black; stroke-width:1px;" />
<line x1="1009.0" y1="69.0" x2="1009.6666666666667" y2="93.0" style="stroke:black; stroke-width:1px;" />
<line x1="1009.0" y1="69.0" x2="1038.3333333333333" y2="93.0" style="stroke:black; stroke-width:1px;" />
<line x1="1009.0" y1="69.0" x2="1088.0" y2="93.0" style="stroke:black; stroke-width:1px;" />
<line x1="1088.0" y1="100.0" x2="1088.0" y2="124.0" style="stroke:black; stroke-width:1px;" />
<line x1="1009.0" y1="69.0" x2="1124.0" y2="93.0" style="stroke:black; stroke-width:1px;" />
<line x1="1278.125" y1="7.0" x2="1389.0" y2="31.0" style="stroke:black; stroke-width:1px;" />
<line x1="1389.0" y1="38.0" x2="1389.0" y2="62.0" style="stroke:black; stroke-width:1px;" />
<line x1="1389.0" y1="69.0" x2="1274.0" y2="93.0" style="stroke:black; stroke-width:1px;" />
<line x1="1389.0" y1="69.0" x2="1328.5" y2="93.0" style="stroke:black; stroke-width:1px;" />
<line x1="1328.5" y1="100.0" x2="1233.5" y2="124.0" style="stroke:black; stroke-width:1px;" />
<line x1="1233.5" y1="131.0" x2="1233.5" y2="155.0" style="stroke:black; stroke-width:1px;" />
<line x1="1233.5" y1="162.0" x2="1158.0" y2="186.0" style="stroke:black; stroke-width:1px;" />
<line x1="1158.0" y1="193.0" x2="1158.0" y2="217.0" style="stroke:black; stroke-width:1px;" />
<line x1="1233.5" y1="162.0" x2="1197.0" y2="186.0" style="stroke:black; stroke-width:1px;" />
<line x1="1233.5" y1="162.0" x2="1223.0" y2="186.0" style="stroke:black; stroke-width:1px;" />
<line x1="1233.5" y1="162.0" x2="1252.0" y2="186.0" style="stroke:black; stroke-width:1px;" />
<line x1="1233.5" y1="162.0" x2="1282.0" y2="186.0" style="stroke:black; stroke-width:1px;" />
<line x1="1233.5" y1="162.0" x2="1309.0" y2="186.0" style="stroke:black; stroke-width:1px;" />
<line x1="1328.5" y1="100.0" x2="1328.5" y2="124.0" style="stroke:black; stroke-width:1px;" />
<line x1="1328.5" y1="100.0" x2="1423.5" y2="124.0" style="stroke:black; stroke-width:1px;" />
<line x1="1423.5" y1="131.0" x2="1423.5" y2="155.0" style="stroke:black; stroke-width:1px;" />
<line x1="1423.5" y1="162.0" x2="1348.0" y2="186.0" style="stroke:black; stroke-width:1px;" />
<line x1="1348.0" y1="193.0" x2="1348.0" y2="217.0" style="stroke:black; stroke-width:1px;" />
<line x1="1423.5" y1="162.0" x2="1387.0" y2="186.0" style="stroke:black; stroke-width:1px;" />
<line x1="1423.5" y1="162.0" x2="1413.0" y2="186.0" style="stroke:black; stroke-width:1px;" />
<line x1="1423.5" y1="162.0" x2="1442.0" y2="186.0" style="stroke:black; stroke-width:1px;" />
<line x1="1423.5" y1="162.0" x2="1472.0" y2="186.0" style="stroke:black; stroke-width:1px;" />
<line x1="1423.5" y1="162.0" x2="1499.0" y2="186.0" style="stroke:black; stroke-width:1px;" />
<line x1="1389.0" y1="69.0" x2="1389.6666666666667" y2="93.0" style="stroke:black; stroke-width:1px;" />
<line x1="1389.0" y1="69.0" x2="1418.3333333333333" y2="93.0" style="stroke:black; stroke-width:1px;" />
<line x1="1389.0" y1="69.0" x2="1468.0" y2="93.0" style="stroke:black; stroke-width:1px;" />
<line x1="1468.0" y1="100.0" x2="1468.0" y2="124.0" style="stroke:black; stroke-width:1px;" />
<line x1="1389.0" y1="69.0" x2="1504.0" y2="93.0" style="stroke:black; stroke-width:1px;" />
<line x1="1278.125" y1="7.0" x2="1590.0" y2="31.0" style="stroke:black; stroke-width:1px;" />
<line x1="1590.0" y1="38.0" x2="1590.0" y2="62.0" style="stroke:black; stroke-width:1px;" />
<line x1="1590.0" y1="69.0" x2="1530.0" y2="93.0" style="stroke:black; stroke-width:1px;" />
<line x1="1590.0" y1="69.0" x2="1595.5" y2="93.0" style="stroke:black; stroke-width:1px;" />
<line x1="1595.5" y1="100.0" x2="1595.5" y2="124.0" style="stroke:black; stroke-width:1px;" />
<line x1="1595.5" y1="131.0" x2="1595.5" y2="155.0" style="stroke:black; stroke-width:1px;" />
<line x1="1595.5" y1="162.0" x2="1595.5" y2="186.0" style="stroke:black; stroke-width:1px;" />
<line x1="1590.0" y1="69.0" x2="1650.0" y2="93.0" style="stroke:black; stroke-width:1px;" />
<line x1="1278.125" y1="7.0" x2="1743.5" y2="31.0" style="stroke:black; stroke-width:1px;" />
<line x1="1743.5" y1="38.0" x2="1743.5" y2="62.0" style="stroke:black; stroke-width:1px;" />
<line x1="1743.5" y1="69.0" x2="1681.0" y2="93.0" style="stroke:black; stroke-width:1px;" />
<line x1="1743.5" y1="69.0" x2="1751.5" y2="93.0" style="stroke:black; stroke-width:1px;" />
<line x1="1751.5" y1="100.0" x2="1751.5" y2="124.0" style="stroke:black; stroke-width:1px;" />
<line x1="1751.5" y1="131.0" x2="1751.5" y2="155.0" style="stroke:black; stroke-width:1px;" />
<line x1="1751.5" y1="162.0" x2="1751.5" y2="186.0" style="stroke:black; stroke-width:1px;" />
<line x1="1743.5" y1="69.0" x2="1806.0" y2="93.0" style="stroke:black; stroke-width:1px;" />
<line x1="1278.125" y1="7.0" x2="1988.75" y2="31.0" style="stroke:black; stroke-width:1px;" />
<line x1="1988.75" y1="38.0" x2="1988.75" y2="62.0" style="stroke:black; stroke-width:1px;" />
<line x1="1988.75" y1="69.0" x2="1883.5" y2="93.0" style="stroke:black; stroke-width:1px;" />
<line x1="1988.75" y1="69.0" x2="1938.0" y2="93.0" style="stroke:black; stroke-width:1px;" />
<line x1="1938.0" y1="100.0" x2="1862.5" y2="124.0" style="stroke:black; stroke-width:1px;" />
<line x1="1862.5" y1="131.0" x2="1862.5" y2="155.0" style="stroke:black; stroke-width:1px;" />
<line x1="1862.5" y1="162.0" x2="1806.5" y2="186.0" style="stroke:black; stroke-width:1px;" />
<line x1="1806.5" y1="193.0" x2="1806.5" y2="217.0" style="stroke:black; stroke-width:1px;" />
<line x1="1862.5" y1="162.0" x2="1845.5" y2="186.0" style="stroke:black; stroke-width:1px;" />
<line x1="1862.5" y1="162.0" x2="1871.5" y2="186.0" style="stroke:black; stroke-width:1px;" />
<line x1="1862.5" y1="162.0" x2="1900.5" y2="186.0" style="stroke:black; stroke-width:1px;" />
<line x1="1862.5" y1="162.0" x2="1918.5" y2="186.0" style="stroke:black; stroke-width:1px;" />
<line x1="1938.0" y1="100.0" x2="1938.0" y2="124.0" style="stroke:black; stroke-width:1px;" />
<line x1="1938.0" y1="100.0" x2="2013.5" y2="124.0" style="stroke:black; stroke-width:1px;" />
<line x1="2013.5" y1="131.0" x2="2013.5" y2="155.0" style="stroke:black; stroke-width:1px;" />
<line x1="2013.5" y1="162.0" x2="1957.5" y2="186.0" style="stroke:black; stroke-width:1px;" />
<line x1="1957.5" y1="193.0" x2="1957.5" y2="217.0" style="stroke:black; stroke-width:1px;" />
<line x1="2013.5" y1="162.0" x2="1996.5" y2="186.0" style="stroke:black; stroke-width:1px;" />
<line x1="2013.5" y1="162.0" x2="2022.5" y2="186.0" style="stroke:black; stroke-width:1px;" />
<line x1="2013.5" y1="162.0" x2="2051.5" y2="186.0" style="stroke:black; stroke-width:1px;" />
<line x1="2013.5" y1="162.0" x2="2069.5" y2="186.0" style="stroke:black; stroke-width:1px;" />
<line x1="1988.75" y1="69.0" x2="1992.6666666666665" y2="93.0" style="stroke:black; stroke-width:1px;" />
<line x1="1988.75" y1="69.0" x2="2014.8333333333335" y2="93.0" style="stroke:black; stroke-width:1px;" />
<line x1="1988.75" y1="69.0" x2="2058.0" y2="93.0" style="stroke:black; stroke-width:1px;" />
<line x1="2058.0" y1="100.0" x2="2058.0" y2="124.0" style="stroke:black; stroke-width:1px;" />
<line x1="1988.75" y1="69.0" x2="2094.0" y2="93.0" style="stroke:black; stroke-width:1px;" />
<line x1="1278.125" y1="7.0" x2="2187.5" y2="31.0" style="stroke:black; stroke-width:1px;" />
<line x1="2187.5" y1="38.0" x2="2187.5" y2="62.0" style="stroke:black; stroke-width:1px;" />
<line x1="2187.5" y1="69.0" x2="2125.0" y2="93.0" style="stroke:black; stroke-width:1px;" />
<line x1="2187.5" y1="69.0" x2="2195.5" y2="93.0" style="stroke:black; stroke-width:1px;" />
<line x1="2195.5" y1="100.0" x2="2195.5" y2="124.0" style="stroke:black; stroke-width:1px;" />
<line x1="2195.5" y1="131.0" x2="2195.5" y2="155.0" style="stroke:black; stroke-width:1px;" />
<line x1="2195.5" y1="162.0" x2="2195.5" y2="186.0" style="stroke:black; stroke-width:1px;" />
<line x1="2187.5" y1="69.0" x2="2250.0" y2="93.0" style="stroke:black; stroke-width:1px;" />
<line x1="1278.125" y1="7.0" x2="2247.5" y2="31.0" style="stroke:black; stroke-width:1px;" />
<rect x="1464.0" y="124.0" width="8.0" height="14.0" style="fill:orange; stroke:rgb(0,0,0);" rx="1"/>
<text x="1466" y="133" style="font-family:sans-serif;font-size:10px;">
t
</text>
<rect x="1893.5" y="186.0" width="14.0" height="14.0" style="fill:orange; stroke:rgb(0,0,0);" rx="1"/>
<text x="1895" y="195" style="font-family:sans-serif;font-size:10px;">
in
</text>
<rect x="701.5" y="93.0" width="8.0" height="14.0" style="fill:orange; stroke:rgb(0,0,0);" rx="1"/>
<text x="703" y="102" style="font-family:sans-serif;font-size:10px;">
;
</text>
<rect x="1005.6666666666667" y="93.0" width="8.0" height="14.0" style="fill:orange; stroke:rgb(0,0,0);" rx="1"/>
<text x="1007" y="102" style="font-family:sans-serif;font-size:10px;">
]
</text>
<rect x="2007.5" y="186.0" width="30.0" height="14.0" style="fill:orange; stroke:rgb(0,0,0);" rx="1"/>
<text x="2009" y="195" style="font-family:sans-serif;font-size:10px;">
read
</text>
<rect x="1661.0" y="93.0" width="40.0" height="14.0" style="fill:orange; stroke:rgb(0,0,0);" rx="1"/>
<text x="1663" y="102" style="font-family:sans-serif;font-size:10px;">
println
</text>
<rect x="277.75" y="31.0" width="62.0" height="14.0" style="fill:orange; stroke:rgb(0,0,0);" rx="1"/>
<text x="279" y="40" style="font-family:sans-serif;font-size:10px;">
statement
</text>
<rect x="905.0" y="93.0" width="87.0" height="14.0" style="fill:orange; stroke:rgb(0,0,0);" rx="1"/>
<text x="907" y="102" style="font-family:sans-serif;font-size:10px;">
expressionList
</text>
<rect x="2156.5" y="31.0" width="62.0" height="14.0" style="fill:orange; stroke:rgb(0,0,0);" rx="1"/>
<text x="2158" y="40" style="font-family:sans-serif;font-size:10px;">
statement
</text>
<rect x="2143.0" y="62.0" width="89.0" height="14.0" style="fill:orange; stroke:rgb(0,0,0);" rx="1"/>
<text x="2145" y="71" style="font-family:sans-serif;font-size:10px;">
printStatement
</text>
<rect x="1398.0" y="186.0" width="30.0" height="14.0" style="fill:orange; stroke:rgb(0,0,0);" rx="1"/>
<text x="1400" y="195" style="font-family:sans-serif;font-size:10px;">
read
</text>
<rect x="1856.5" y="186.0" width="30.0" height="14.0" style="fill:orange; stroke:rgb(0,0,0);" rx="1"/>
<text x="1858" y="195" style="font-family:sans-serif;font-size:10px;">
read
</text>
<rect x="765.0" y="124.0" width="48.0" height="14.0" style="fill:orange; stroke:rgb(0,0,0);" rx="1"/>
<text x="767" y="133" style="font-family:sans-serif;font-size:10px;">
primary
</text>
<rect x="1552.0" y="93.0" width="87.0" height="14.0" style="fill:orange; stroke:rgb(0,0,0);" rx="1"/>
<text x="1554" y="102" style="font-family:sans-serif;font-size:10px;">
expressionList
</text>
<rect x="1208.0" y="186.0" width="30.0" height="14.0" style="fill:orange; stroke:rgb(0,0,0);" rx="1"/>
<text x="1210" y="195" style="font-family:sans-serif;font-size:10px;">
read
</text>
<rect x="1929.5" y="186.0" width="56.0" height="14.0" style="fill:orange; stroke:rgb(0,0,0);" rx="1"/>
<text x="1931" y="195" style="font-family:sans-serif;font-size:10px;">
dataType
</text>
<rect x="1084.0" y="124.0" width="8.0" height="14.0" style="fill:orange; stroke:rgb(0,0,0);" rx="1"/>
<text x="1086" y="133" style="font-family:sans-serif;font-size:10px;">
t
</text>
<rect x="1727.5" y="155.0" width="48.0" height="14.0" style="fill:orange; stroke:rgb(0,0,0);" rx="1"/>
<text x="1729" y="164" style="font-family:sans-serif;font-size:10px;">
primary
</text>
<rect x="1055.0" y="186.0" width="14.0" height="14.0" style="fill:orange; stroke:rgb(0,0,0);" rx="1"/>
<text x="1057" y="195" style="font-family:sans-serif;font-size:10px;">
in
</text>
<rect x="2105.0" y="93.0" width="40.0" height="14.0" style="fill:orange; stroke:rgb(0,0,0);" rx="1"/>
<text x="2107" y="102" style="font-family:sans-serif;font-size:10px;">
println
</text>
<rect x="591.0" y="186.0" width="8.0" height="14.0" style="fill:orange; stroke:rgb(0,0,0);" rx="1"/>
<text x="593" y="195" style="font-family:sans-serif;font-size:10px;">
)
</text>
<rect x="1562.0" y="124.0" width="67.0" height="14.0" style="fill:orange; stroke:rgb(0,0,0);" rx="1"/>
<text x="1564" y="133" style="font-family:sans-serif;font-size:10px;">
expression
</text>
<rect x="2225.5" y="31.0" width="44.0" height="14.0" style="fill:orange; stroke:rgb(0,0,0);" rx="1"/>
<text x="2227" y="40" style="font-family:sans-serif;font-size:10px;">
&lt;EOF&gt;
</text>
<rect x="581.5" y="93.0" width="11.0" height="14.0" style="fill:orange; stroke:rgb(0,0,0);" rx="1"/>
<text x="583" y="102" style="font-family:sans-serif;font-size:10px;">
}
</text>
<rect x="74.0" y="93.0" width="35.0" height="14.0" style="fill:orange; stroke:rgb(0,0,0);" rx="1"/>
<text x="76" y="102" style="font-family:sans-serif;font-size:10px;">
Table
</text>
<rect x="1130.0" y="186.0" width="56.0" height="14.0" style="fill:orange; stroke:rgb(0,0,0);" rx="1"/>
<text x="1132" y="195" style="font-family:sans-serif;font-size:10px;">
dataType
</text>
<rect x="2044.5" y="186.0" width="14.0" height="14.0" style="fill:orange; stroke:rgb(0,0,0);" rx="1"/>
<text x="2046" y="195" style="font-family:sans-serif;font-size:10px;">
in
</text>
<rect x="2033.0" y="93.0" width="50.0" height="14.0" style="fill:orange; stroke:rgb(0,0,0);" rx="1"/>
<text x="2035" y="102" style="font-family:sans-serif;font-size:10px;">
tableRef
</text>
<rect x="1944.5" y="217.0" width="26.0" height="14.0" style="fill:orange; stroke:rgb(0,0,0);" rx="1"/>
<text x="1946" y="226" style="font-family:sans-serif;font-size:10px;">
real
</text>
<rect x="865.0" y="186.0" width="14.0" height="14.0" style="fill:orange; stroke:rgb(0,0,0);" rx="1"/>
<text x="867" y="195" style="font-family:sans-serif;font-size:10px;">
in
</text>
<rect x="925.0" y="186.0" width="8.0" height="14.0" style="fill:orange; stroke:rgb(0,0,0);" rx="1"/>
<text x="927" y="195" style="font-family:sans-serif;font-size:10px;">
)
</text>
<rect x="596.5" y="155.0" width="48.0" height="14.0" style="fill:orange; stroke:rgb(0,0,0);" rx="1"/>
<text x="598" y="164" style="font-family:sans-serif;font-size:10px;">
primary
</text>
<rect x="473.5" y="93.0" width="101.0" height="14.0" style="fill:orange; stroke:rgb(0,0,0);" rx="1"/>
<text x="475" y="102" style="font-family:sans-serif;font-size:10px;">
formulaDefinition
</text>
<rect x="2171.5" y="155.0" width="48.0" height="14.0" style="fill:orange; stroke:rgb(0,0,0);" rx="1"/>
<text x="2173" y="164" style="font-family:sans-serif;font-size:10px;">
primary
</text>
<rect x="716.5" y="93.0" width="8.0" height="14.0" style="fill:orange; stroke:rgb(0,0,0);" rx="1"/>
<text x="718" y="102" style="font-family:sans-serif;font-size:10px;">
t
</text>
<rect x="1708.0" y="93.0" width="87.0" height="14.0" style="fill:orange; stroke:rgb(0,0,0);" rx="1"/>
<text x="1710" y="102" style="font-family:sans-serif;font-size:10px;">
expressionList
</text>
<rect x="1305.0" y="186.0" width="8.0" height="14.0" style="fill:orange; stroke:rgb(0,0,0);" rx="1"/>
<text x="1307" y="195" style="font-family:sans-serif;font-size:10px;">
)
</text>
<rect x="1515.0" y="93.0" width="30.0" height="14.0" style="fill:orange; stroke:rgb(0,0,0);" rx="1"/>
<text x="1517" y="102" style="font-family:sans-serif;font-size:10px;">
print
</text>
<rect x="517.0" y="186.0" width="67.0" height="14.0" style="fill:orange; stroke:rgb(0,0,0);" rx="1"/>
<text x="519" y="195" style="font-family:sans-serif;font-size:10px;">
expression
</text>
<rect x="829.5" y="93.0" width="8.0" height="14.0" style="fill:orange; stroke:rgb(0,0,0);" rx="1"/>
<text x="831" y="102" style="font-family:sans-serif;font-size:10px;">
;
</text>
<rect x="978.0" y="31.0" width="62.0" height="14.0" style="fill:orange; stroke:rgb(0,0,0);" rx="1"/>
<text x="980" y="40" style="font-family:sans-serif;font-size:10px;">
statement
</text>
<rect x="300.0" y="124.0" width="8.0" height="14.0" style="fill:orange; stroke:rgb(0,0,0);" rx="1"/>
<text x="302" y="133" style="font-family:sans-serif;font-size:10px;">
:
</text>
<rect x="504.0" y="248.0" width="18.0" height="14.0" style="fill:orange; stroke:rgb(0,0,0);" rx="1"/>
<text x="506" y="257" style="font-family:sans-serif;font-size:10px;">
n1
</text>
<rect x="1802.0" y="93.0" width="8.0" height="14.0" style="fill:orange; stroke:rgb(0,0,0);" rx="1"/>
<text x="1804" y="102" style="font-family:sans-serif;font-size:10px;">
;
</text>
<rect x="480.0" y="155.0" width="26.0" height="14.0" style="fill:orange; stroke:rgb(0,0,0);" rx="1"/>
<text x="482" y="164" style="font-family:sans-serif;font-size:10px;">
real
</text>
<rect x="1200.0" y="124.0" width="67.0" height="14.0" style="fill:orange; stroke:rgb(0,0,0);" rx="1"/>
<text x="1202" y="133" style="font-family:sans-serif;font-size:10px;">
expression
</text>
<rect x="1699.0" y="62.0" width="89.0" height="14.0" style="fill:orange; stroke:rgb(0,0,0);" rx="1"/>
<text x="1701" y="71" style="font-family:sans-serif;font-size:10px;">
printStatement
</text>
<rect x="1567.0" y="186.0" width="57.0" height="14.0" style="fill:orange; stroke:rgb(0,0,0);" rx="1"/>
<text x="1569" y="195" style="font-family:sans-serif;font-size:10px;">
"n1路and路"
</text>
<rect x="755.5" y="93.0" width="67.0" height="14.0" style="fill:orange; stroke:rgb(0,0,0);" rx="1"/>
<text x="757" y="102" style="font-family:sans-serif;font-size:10px;">
expression
</text>
<rect x="180.0" y="124.0" width="56.0" height="14.0" style="fill:orange; stroke:rgb(0,0,0);" rx="1"/>
<text x="182" y="133" style="font-family:sans-serif;font-size:10px;">
dataType
</text>
<rect x="489.0" y="217.0" width="48.0" height="14.0" style="fill:orange; stroke:rgb(0,0,0);" rx="1"/>
<text x="491" y="226" style="font-family:sans-serif;font-size:10px;">
primary
</text>
<rect x="1731.5" y="186.0" width="40.0" height="14.0" style="fill:orange; stroke:rgb(0,0,0);" rx="1"/>
<text x="1733" y="195" style="font-family:sans-serif;font-size:10px;">
"路n2:路"
</text>
<rect x="450.0" y="124.0" width="8.0" height="14.0" style="fill:orange; stroke:rgb(0,0,0);" rx="1"/>
<text x="452" y="133" style="font-family:sans-serif;font-size:10px;">
:
</text>
<rect x="579.0" y="248.0" width="18.0" height="14.0" style="fill:orange; stroke:rgb(0,0,0);" rx="1"/>
<text x="581" y="257" style="font-family:sans-serif;font-size:10px;">
n2
</text>
<rect x="1320.0" y="186.0" width="56.0" height="14.0" style="fill:orange; stroke:rgb(0,0,0);" rx="1"/>
<text x="1322" y="195" style="font-family:sans-serif;font-size:10px;">
dataType
</text>
<rect x="1545.5" y="62.0" width="89.0" height="14.0" style="fill:orange; stroke:rgb(0,0,0);" rx="1"/>
<text x="1547" y="71" style="font-family:sans-serif;font-size:10px;">
printStatement
</text>
<rect x="1980.0" y="124.0" width="67.0" height="14.0" style="fill:orange; stroke:rgb(0,0,0);" rx="1"/>
<text x="1982" y="133" style="font-family:sans-serif;font-size:10px;">
expression
</text>
<rect x="1989.5" y="155.0" width="48.0" height="14.0" style="fill:orange; stroke:rgb(0,0,0);" rx="1"/>
<text x="1991" y="164" style="font-family:sans-serif;font-size:10px;">
primary
</text>
<rect x="2065.5" y="186.0" width="8.0" height="14.0" style="fill:orange; stroke:rgb(0,0,0);" rx="1"/>
<text x="2067" y="195" style="font-family:sans-serif;font-size:10px;">
)
</text>
<rect x="2152.0" y="93.0" width="87.0" height="14.0" style="fill:orange; stroke:rgb(0,0,0);" rx="1"/>
<text x="2154" y="102" style="font-family:sans-serif;font-size:10px;">
expressionList
</text>
<rect x="140.0" y="124.0" width="18.0" height="14.0" style="fill:orange; stroke:rgb(0,0,0);" rx="1"/>
<text x="142" y="133" style="font-family:sans-serif;font-size:10px;">
n1
</text>
<rect x="1407.3333333333333" y="93.0" width="22.0" height="14.0" style="fill:orange; stroke:rgb(0,0,0);" rx="1"/>
<text x="1409" y="102" style="font-family:sans-serif;font-size:10px;">
&gt;&gt;
</text>
<rect x="1934.0" y="124.0" width="8.0" height="14.0" style="fill:orange; stroke:rgb(0,0,0);" rx="1"/>
<text x="1936" y="133" style="font-family:sans-serif;font-size:10px;">
,
</text>
<rect x="1266.0" y="186.0" width="32.0" height="14.0" style="fill:orange; stroke:rgb(0,0,0);" rx="1"/>
<text x="1268" y="195" style="font-family:sans-serif;font-size:10px;">
"n1:"
</text>
<rect x="2003.8333333333335" y="93.0" width="22.0" height="14.0" style="fill:orange; stroke:rgb(0,0,0);" rx="1"/>
<text x="2005" y="102" style="font-family:sans-serif;font-size:10px;">
&gt;&gt;
</text>
<rect x="1914.5" y="186.0" width="8.0" height="14.0" style="fill:orange; stroke:rgb(0,0,0);" rx="1"/>
<text x="1916" y="195" style="font-family:sans-serif;font-size:10px;">
)
</text>
<rect x="134.0" y="93.0" width="128.0" height="14.0" style="fill:orange; stroke:rgb(0,0,0);" rx="1"/>
<text x="136" y="102" style="font-family:sans-serif;font-size:10px;">
tableColumnDefinition
</text>
<rect x="269.0" y="93.0" width="128.0" height="14.0" style="fill:orange; stroke:rgb(0,0,0);" rx="1"/>
<text x="271" y="102" style="font-family:sans-serif;font-size:10px;">
tableColumnDefinition
</text>
<rect x="1435.0" y="186.0" width="14.0" height="14.0" style="fill:orange; stroke:rgb(0,0,0);" rx="1"/>
<text x="1437" y="195" style="font-family:sans-serif;font-size:10px;">
in
</text>
<rect x="2162.0" y="124.0" width="67.0" height="14.0" style="fill:orange; stroke:rgb(0,0,0);" rx="1"/>
<text x="2164" y="133" style="font-family:sans-serif;font-size:10px;">
expression
</text>
<rect x="940.0" y="186.0" width="56.0" height="14.0" style="fill:orange; stroke:rgb(0,0,0);" rx="1"/>
<text x="942" y="195" style="font-family:sans-serif;font-size:10px;">
dataType
</text>
<rect x="1285.0" y="93.0" width="87.0" height="14.0" style="fill:orange; stroke:rgb(0,0,0);" rx="1"/>
<text x="1287" y="102" style="font-family:sans-serif;font-size:10px;">
expressionList
</text>
<rect x="1841.5" y="186.0" width="8.0" height="14.0" style="fill:orange; stroke:rgb(0,0,0);" rx="1"/>
<text x="1843" y="195" style="font-family:sans-serif;font-size:10px;">
(
</text>
<rect x="615.0" y="186.0" width="11.0" height="14.0" style="fill:orange; stroke:rgb(0,0,0);" rx="1"/>
<text x="617" y="195" style="font-family:sans-serif;font-size:10px;">
2
</text>
<rect x="599.5" y="93.0" width="8.0" height="14.0" style="fill:orange; stroke:rgb(0,0,0);" rx="1"/>
<text x="601" y="102" style="font-family:sans-serif;font-size:10px;">
;
</text>
<rect x="1838.5" y="155.0" width="48.0" height="14.0" style="fill:orange; stroke:rgb(0,0,0);" rx="1"/>
<text x="1840" y="164" style="font-family:sans-serif;font-size:10px;">
primary
</text>
<rect x="1019.5" y="155.0" width="48.0" height="14.0" style="fill:orange; stroke:rgb(0,0,0);" rx="1"/>
<text x="1021" y="164" style="font-family:sans-serif;font-size:10px;">
primary
</text>
<rect x="1270.0" y="93.0" width="8.0" height="14.0" style="fill:orange; stroke:rgb(0,0,0);" rx="1"/>
<text x="1272" y="102" style="font-family:sans-serif;font-size:10px;">
[
</text>
<rect x="1571.5" y="155.0" width="48.0" height="14.0" style="fill:orange; stroke:rgb(0,0,0);" rx="1"/>
<text x="1573" y="164" style="font-family:sans-serif;font-size:10px;">
primary
</text>
<rect x="1646.0" y="93.0" width="8.0" height="14.0" style="fill:orange; stroke:rgb(0,0,0);" rx="1"/>
<text x="1648" y="102" style="font-family:sans-serif;font-size:10px;">
;
</text>
<rect x="1988.6666666666665" y="93.0" width="8.0" height="14.0" style="fill:orange; stroke:rgb(0,0,0);" rx="1"/>
<text x="1990" y="102" style="font-family:sans-serif;font-size:10px;">
]
</text>
<rect x="195.0" y="155.0" width="26.0" height="14.0" style="fill:orange; stroke:rgb(0,0,0);" rx="1"/>
<text x="197" y="164" style="font-family:sans-serif;font-size:10px;">
real
</text>
<rect x="731.5" y="93.0" width="17.0" height="14.0" style="fill:orange; stroke:rgb(0,0,0);" rx="1"/>
<text x="733" y="102" style="font-family:sans-serif;font-size:10px;">
:=
</text>
<rect x="1935.25" y="62.0" width="107.0" height="14.0" style="fill:orange; stroke:rgb(0,0,0);" rx="1"/>
<text x="1937" y="71" style="font-family:sans-serif;font-size:10px;">
addRowStatement
</text>
<rect x="1251.625" y="0.0" width="53.0" height="14.0" style="fill:orange; stroke:rgb(0,0,0);" rx="1"/>
<text x="1253" y="9" style="font-family:sans-serif;font-size:10px;">
program
</text>
<rect x="1712.5" y="31.0" width="62.0" height="14.0" style="fill:orange; stroke:rgb(0,0,0);" rx="1"/>
<text x="1714" y="40" style="font-family:sans-serif;font-size:10px;">
statement
</text>
<rect x="1443.0" y="93.0" width="50.0" height="14.0" style="fill:orange; stroke:rgb(0,0,0);" rx="1"/>
<text x="1445" y="102" style="font-family:sans-serif;font-size:10px;">
tableRef
</text>
<rect x="1335.5" y="62.0" width="107.0" height="14.0" style="fill:orange; stroke:rgb(0,0,0);" rx="1"/>
<text x="1337" y="71" style="font-family:sans-serif;font-size:10px;">
addRowStatement
</text>
<rect x="1718.0" y="124.0" width="67.0" height="14.0" style="fill:orange; stroke:rgb(0,0,0);" rx="1"/>
<text x="1720" y="133" style="font-family:sans-serif;font-size:10px;">
expression
</text>
<rect x="629.5" y="93.0" width="8.0" height="14.0" style="fill:orange; stroke:rgb(0,0,0);" rx="1"/>
<text x="631" y="102" style="font-family:sans-serif;font-size:10px;">
:
</text>
<rect x="1209.5" y="155.0" width="48.0" height="14.0" style="fill:orange; stroke:rgb(0,0,0);" rx="1"/>
<text x="1211" y="164" style="font-family:sans-serif;font-size:10px;">
primary
</text>
<rect x="644.5" y="93.0" width="50.0" height="14.0" style="fill:orange; stroke:rgb(0,0,0);" rx="1"/>
<text x="646" y="102" style="font-family:sans-serif;font-size:10px;">
tableRef
</text>
<rect x="1245.0" y="186.0" width="14.0" height="14.0" style="fill:orange; stroke:rgb(0,0,0);" rx="1"/>
<text x="1247" y="195" style="font-family:sans-serif;font-size:10px;">
in
</text>
<rect x="1829.0" y="124.0" width="67.0" height="14.0" style="fill:orange; stroke:rgb(0,0,0);" rx="1"/>
<text x="1831" y="133" style="font-family:sans-serif;font-size:10px;">
expression
</text>
<rect x="1456.0" y="186.0" width="32.0" height="14.0" style="fill:orange; stroke:rgb(0,0,0);" rx="1"/>
<text x="1458" y="195" style="font-family:sans-serif;font-size:10px;">
"n2:"
</text>
<rect x="1894.5" y="93.0" width="87.0" height="14.0" style="fill:orange; stroke:rgb(0,0,0);" rx="1"/>
<text x="1896" y="102" style="font-family:sans-serif;font-size:10px;">
expressionList
</text>
<rect x="1992.5" y="186.0" width="8.0" height="14.0" style="fill:orange; stroke:rgb(0,0,0);" rx="1"/>
<text x="1994" y="195" style="font-family:sans-serif;font-size:10px;">
(
</text>
<rect x="1076.0" y="186.0" width="32.0" height="14.0" style="fill:orange; stroke:rgb(0,0,0);" rx="1"/>
<text x="1078" y="195" style="font-family:sans-serif;font-size:10px;">
"n2:"
</text>
<rect x="775.5" y="155.0" width="27.0" height="14.0" style="fill:orange; stroke:rgb(0,0,0);" rx="1"/>
<text x="777" y="164" style="font-family:sans-serif;font-size:10px;">
new
</text>
<rect x="955.0" y="217.0" width="26.0" height="14.0" style="fill:orange; stroke:rgb(0,0,0);" rx="1"/>
<text x="957" y="226" style="font-family:sans-serif;font-size:10px;">
real
</text>
<rect x="0.0" y="93.0" width="28.0" height="14.0" style="fill:orange; stroke:rgb(0,0,0);" rx="1"/>
<text x="2" y="102" style="font-family:sans-serif;font-size:10px;">
type
</text>
<rect x="828.0" y="186.0" width="30.0" height="14.0" style="fill:orange; stroke:rgb(0,0,0);" rx="1"/>
<text x="830" y="195" style="font-family:sans-serif;font-size:10px;">
read
</text>
<rect x="1335.0" y="217.0" width="26.0" height="14.0" style="fill:orange; stroke:rgb(0,0,0);" rx="1"/>
<text x="1337" y="226" style="font-family:sans-serif;font-size:10px;">
real
</text>
<rect x="886.0" y="186.0" width="32.0" height="14.0" style="fill:orange; stroke:rgb(0,0,0);" rx="1"/>
<text x="888" y="195" style="font-family:sans-serif;font-size:10px;">
"n1:"
</text>
<rect x="1385.6666666666667" y="93.0" width="8.0" height="14.0" style="fill:orange; stroke:rgb(0,0,0);" rx="1"/>
<text x="1387" y="102" style="font-family:sans-serif;font-size:10px;">
]
</text>
<rect x="165.0" y="124.0" width="8.0" height="14.0" style="fill:orange; stroke:rgb(0,0,0);" rx="1"/>
<text x="167" y="133" style="font-family:sans-serif;font-size:10px;">
:
</text>
<rect x="1957.75" y="31.0" width="62.0" height="14.0" style="fill:orange; stroke:rgb(0,0,0);" rx="1"/>
<text x="1959" y="40" style="font-family:sans-serif;font-size:10px;">
statement
</text>
<rect x="626.5" y="62.0" width="71.0" height="14.0" style="fill:orange; stroke:rgb(0,0,0);" rx="1"/>
<text x="628" y="71" style="font-family:sans-serif;font-size:10px;">
assignment
</text>
<rect x="955.5" y="62.0" width="107.0" height="14.0" style="fill:orange; stroke:rgb(0,0,0);" rx="1"/>
<text x="957" y="71" style="font-family:sans-serif;font-size:10px;">
addRowStatement
</text>
<rect x="465.0" y="124.0" width="56.0" height="14.0" style="fill:orange; stroke:rgb(0,0,0);" rx="1"/>
<text x="467" y="133" style="font-family:sans-serif;font-size:10px;">
dataType
</text>
<rect x="502.0" y="186.0" width="8.0" height="14.0" style="fill:orange; stroke:rgb(0,0,0);" rx="1"/>
<text x="504" y="195" style="font-family:sans-serif;font-size:10px;">
(
</text>
<rect x="528.0" y="124.0" width="17.0" height="14.0" style="fill:orange; stroke:rgb(0,0,0);" rx="1"/>
<text x="530" y="133" style="font-family:sans-serif;font-size:10px;">
:=
</text>
<rect x="564.0" y="217.0" width="48.0" height="14.0" style="fill:orange; stroke:rgb(0,0,0);" rx="1"/>
<text x="566" y="226" style="font-family:sans-serif;font-size:10px;">
primary
</text>
<rect x="581.5" y="155.0" width="8.0" height="14.0" style="fill:orange; stroke:rgb(0,0,0);" rx="1"/>
<text x="583" y="164" style="font-family:sans-serif;font-size:10px;">
/
</text>
<rect x="652.0" y="124.0" width="35.0" height="14.0" style="fill:orange; stroke:rgb(0,0,0);" rx="1"/>
<text x="654" y="133" style="font-family:sans-serif;font-size:10px;">
Table
</text>
<rect x="765.0" y="217.0" width="26.0" height="14.0" style="fill:orange; stroke:rgb(0,0,0);" rx="1"/>
<text x="767" y="226" style="font-family:sans-serif;font-size:10px;">
real
</text>
<rect x="116.0" y="93.0" width="11.0" height="14.0" style="fill:orange; stroke:rgb(0,0,0);" rx="1"/>
<text x="118" y="102" style="font-family:sans-serif;font-size:10px;">
{
</text>
<rect x="1390.0" y="124.0" width="67.0" height="14.0" style="fill:orange; stroke:rgb(0,0,0);" rx="1"/>
<text x="1392" y="133" style="font-family:sans-serif;font-size:10px;">
expression
</text>
<rect x="1010.0" y="124.0" width="67.0" height="14.0" style="fill:orange; stroke:rgb(0,0,0);" rx="1"/>
<text x="1012" y="133" style="font-family:sans-serif;font-size:10px;">
expression
</text>
<rect x="1559.0" y="31.0" width="62.0" height="14.0" style="fill:orange; stroke:rgb(0,0,0);" rx="1"/>
<text x="1561" y="40" style="font-family:sans-serif;font-size:10px;">
statement
</text>
<rect x="890.0" y="93.0" width="8.0" height="14.0" style="fill:orange; stroke:rgb(0,0,0);" rx="1"/>
<text x="892" y="102" style="font-family:sans-serif;font-size:10px;">
[
</text>
<rect x="944.5" y="124.0" width="8.0" height="14.0" style="fill:orange; stroke:rgb(0,0,0);" rx="1"/>
<text x="946" y="133" style="font-family:sans-serif;font-size:10px;">
,
</text>
<rect x="829.5" y="155.0" width="48.0" height="14.0" style="fill:orange; stroke:rgb(0,0,0);" rx="1"/>
<text x="831" y="164" style="font-family:sans-serif;font-size:10px;">
primary
</text>
<rect x="1399.5" y="155.0" width="48.0" height="14.0" style="fill:orange; stroke:rgb(0,0,0);" rx="1"/>
<text x="1401" y="164" style="font-family:sans-serif;font-size:10px;">
primary
</text>
<rect x="626.0" y="124.0" width="8.0" height="14.0" style="fill:orange; stroke:rgb(0,0,0);" rx="1"/>
<text x="628" y="133" style="font-family:sans-serif;font-size:10px;">
;
</text>
<rect x="1003.0" y="186.0" width="8.0" height="14.0" style="fill:orange; stroke:rgb(0,0,0);" rx="1"/>
<text x="1005" y="195" style="font-family:sans-serif;font-size:10px;">
(
</text>
<rect x="1383.0" y="186.0" width="8.0" height="14.0" style="fill:orange; stroke:rgb(0,0,0);" rx="1"/>
<text x="1385" y="195" style="font-family:sans-serif;font-size:10px;">
(
</text>
<rect x="266.25" y="62.0" width="85.0" height="14.0" style="fill:orange; stroke:rgb(0,0,0);" rx="1"/>
<text x="268" y="71" style="font-family:sans-serif;font-size:10px;">
tableDefinition
</text>
<rect x="35.0" y="93.0" width="32.0" height="14.0" style="fill:orange; stroke:rgb(0,0,0);" rx="1"/>
<text x="37" y="102" style="font-family:sans-serif;font-size:10px;">
table
</text>
<rect x="275.0" y="124.0" width="18.0" height="14.0" style="fill:orange; stroke:rgb(0,0,0);" rx="1"/>
<text x="277" y="133" style="font-family:sans-serif;font-size:10px;">
n2
</text>
<rect x="631.0" y="31.0" width="62.0" height="14.0" style="fill:orange; stroke:rgb(0,0,0);" rx="1"/>
<text x="633" y="40" style="font-family:sans-serif;font-size:10px;">
statement
</text>
<rect x="820.0" y="124.0" width="67.0" height="14.0" style="fill:orange; stroke:rgb(0,0,0);" rx="1"/>
<text x="822" y="133" style="font-family:sans-serif;font-size:10px;">
expression
</text>
<rect x="746.0" y="31.0" width="62.0" height="14.0" style="fill:orange; stroke:rgb(0,0,0);" rx="1"/>
<text x="748" y="40" style="font-family:sans-serif;font-size:10px;">
statement
</text>
<rect x="1027.3333333333333" y="93.0" width="22.0" height="14.0" style="fill:orange; stroke:rgb(0,0,0);" rx="1"/>
<text x="1029" y="102" style="font-family:sans-serif;font-size:10px;">
&gt;&gt;
</text>
<rect x="1063.0" y="93.0" width="50.0" height="14.0" style="fill:orange; stroke:rgb(0,0,0);" rx="1"/>
<text x="1065" y="102" style="font-family:sans-serif;font-size:10px;">
tableRef
</text>
<rect x="741.5" y="62.0" width="71.0" height="14.0" style="fill:orange; stroke:rgb(0,0,0);" rx="1"/>
<text x="743" y="71" style="font-family:sans-serif;font-size:10px;">
assignment
</text>
<rect x="750.0" y="186.0" width="56.0" height="14.0" style="fill:orange; stroke:rgb(0,0,0);" rx="1"/>
<text x="752" y="195" style="font-family:sans-serif;font-size:10px;">
dataType
</text>
<rect x="1358.0" y="31.0" width="62.0" height="14.0" style="fill:orange; stroke:rgb(0,0,0);" rx="1"/>
<text x="1360" y="40" style="font-family:sans-serif;font-size:10px;">
statement
</text>
<rect x="330.0" y="155.0" width="26.0" height="14.0" style="fill:orange; stroke:rgb(0,0,0);" rx="1"/>
<text x="332" y="164" style="font-family:sans-serif;font-size:10px;">
real
</text>
<rect x="552.0" y="124.0" width="67.0" height="14.0" style="fill:orange; stroke:rgb(0,0,0);" rx="1"/>
<text x="554" y="133" style="font-family:sans-serif;font-size:10px;">
expression
</text>
<rect x="1193.0" y="186.0" width="8.0" height="14.0" style="fill:orange; stroke:rgb(0,0,0);" rx="1"/>
<text x="1195" y="195" style="font-family:sans-serif;font-size:10px;">
(
</text>
<rect x="1495.0" y="186.0" width="8.0" height="14.0" style="fill:orange; stroke:rgb(0,0,0);" rx="1"/>
<text x="1497" y="195" style="font-family:sans-serif;font-size:10px;">
)
</text>
<rect x="1500.0" y="93.0" width="8.0" height="14.0" style="fill:orange; stroke:rgb(0,0,0);" rx="1"/>
<text x="1502" y="102" style="font-family:sans-serif;font-size:10px;">
;
</text>
<rect x="1879.5" y="93.0" width="8.0" height="14.0" style="fill:orange; stroke:rgb(0,0,0);" rx="1"/>
<text x="1881" y="102" style="font-family:sans-serif;font-size:10px;">
[
</text>
<rect x="1778.5" y="186.0" width="56.0" height="14.0" style="fill:orange; stroke:rgb(0,0,0);" rx="1"/>
<text x="1780" y="195" style="font-family:sans-serif;font-size:10px;">
dataType
</text>
<rect x="1793.5" y="217.0" width="26.0" height="14.0" style="fill:orange; stroke:rgb(0,0,0);" rx="1"/>
<text x="1795" y="226" style="font-family:sans-serif;font-size:10px;">
real
</text>
<rect x="2054.0" y="124.0" width="8.0" height="14.0" style="fill:orange; stroke:rgb(0,0,0);" rx="1"/>
<text x="2056" y="133" style="font-family:sans-serif;font-size:10px;">
t
</text>
<rect x="813.0" y="186.0" width="8.0" height="14.0" style="fill:orange; stroke:rgb(0,0,0);" rx="1"/>
<text x="815" y="195" style="font-family:sans-serif;font-size:10px;">
(
</text>
<rect x="2090.0" y="93.0" width="8.0" height="14.0" style="fill:orange; stroke:rgb(0,0,0);" rx="1"/>
<text x="2092" y="102" style="font-family:sans-serif;font-size:10px;">
;
</text>
<rect x="1115.0" y="186.0" width="8.0" height="14.0" style="fill:orange; stroke:rgb(0,0,0);" rx="1"/>
<text x="1117" y="195" style="font-family:sans-serif;font-size:10px;">
)
</text>
<rect x="315.0" y="124.0" width="56.0" height="14.0" style="fill:orange; stroke:rgb(0,0,0);" rx="1"/>
<text x="317" y="133" style="font-family:sans-serif;font-size:10px;">
dataType
</text>
<rect x="614.5" y="93.0" width="8.0" height="14.0" style="fill:orange; stroke:rgb(0,0,0);" rx="1"/>
<text x="616" y="102" style="font-family:sans-serif;font-size:10px;">
t
</text>
<rect x="1120.0" y="93.0" width="8.0" height="14.0" style="fill:orange; stroke:rgb(0,0,0);" rx="1"/>
<text x="1122" y="102" style="font-family:sans-serif;font-size:10px;">
;
</text>
<rect x="1324.5" y="124.0" width="8.0" height="14.0" style="fill:orange; stroke:rgb(0,0,0);" rx="1"/>
<text x="1326" y="133" style="font-family:sans-serif;font-size:10px;">
,
</text>
<rect x="393.0" y="124.0" width="50.0" height="14.0" style="fill:orange; stroke:rgb(0,0,0);" rx="1"/>
<text x="395" y="133" style="font-family:sans-serif;font-size:10px;">
average
</text>
<rect x="1145.0" y="217.0" width="26.0" height="14.0" style="fill:orange; stroke:rgb(0,0,0);" rx="1"/>
<text x="1147" y="226" style="font-family:sans-serif;font-size:10px;">
real
</text>
<rect x="2191.5" y="186.0" width="8.0" height="14.0" style="fill:orange; stroke:rgb(0,0,0);" rx="1"/>
<text x="2193" y="195" style="font-family:sans-serif;font-size:10px;">
t
</text>
<rect x="378.0" y="124.0" width="8.0" height="14.0" style="fill:orange; stroke:rgb(0,0,0);" rx="1"/>
<text x="380" y="133" style="font-family:sans-serif;font-size:10px;">
;
</text>
<rect x="2246.0" y="93.0" width="8.0" height="14.0" style="fill:orange; stroke:rgb(0,0,0);" rx="1"/>
<text x="2248" y="102" style="font-family:sans-serif;font-size:10px;">
;
</text>
<rect x="243.0" y="124.0" width="8.0" height="14.0" style="fill:orange; stroke:rgb(0,0,0);" rx="1"/>
<text x="245" y="133" style="font-family:sans-serif;font-size:10px;">
;
</text>
<rect x="544.0" y="217.0" width="13.0" height="14.0" style="fill:orange; stroke:rgb(0,0,0);" rx="1"/>
<text x="546" y="226" style="font-family:sans-serif;font-size:10px;">
+
</text>
<rect x="1018.0" y="186.0" width="30.0" height="14.0" style="fill:orange; stroke:rgb(0,0,0);" rx="1"/>
<text x="1020" y="195" style="font-family:sans-serif;font-size:10px;">
read
</text>
<rect x="526.5" y="155.0" width="48.0" height="14.0" style="fill:orange; stroke:rgb(0,0,0);" rx="1"/>
<text x="528" y="164" style="font-family:sans-serif;font-size:10px;">
primary
</text>
</svg>