<svg width="3944.6000000000004" height="1039.5" xmlns="http://www.w3.org/2000/svg" xmlns:xlink="http://www.w3.org/1999/xlink"><line x1="1337.25" y1="7.0" x2="249.0" y2="31.0" style="stroke:black; stroke-width:1px;" />
<line x1="249.0" y1="38.0" x2="249.0" y2="62.0" style="stroke:black; stroke-width:1px;" />
<line x1="249.0" y1="69.0" x2="14.0" y2="93.0" style="stroke:black; stroke-width:1px;" />
<line x1="249.0" y1="69.0" x2="51.0" y2="93.0" style="stroke:black; stroke-width:1px;" />
<line x1="249.0" y1="69.0" x2="95.0" y2="93.0" style="stroke:black; stroke-width:1px;" />
<line x1="249.0" y1="69.0" x2="128.5" y2="93.0" style="stroke:black; stroke-width:1px;" />
<line x1="249.0" y1="69.0" x2="205.0" y2="93.0" style="stroke:black; stroke-width:1px;" />
<line x1="205.0" y1="100.0" x2="110.5" y2="124.0" style="stroke:black; stroke-width:1px;" />
<line x1="205.0" y1="100.0" x2="139.5" y2="124.0" style="stroke:black; stroke-width:1px;" />
<line x1="205.0" y1="100.0" x2="178.5" y2="124.0" style="stroke:black; stroke-width:1px;" />
<line x1="178.5" y1="131.0" x2="178.5" y2="155.0" style="stroke:black; stroke-width:1px;" />
<line x1="205.0" y1="100.0" x2="222.0" y2="124.0" style="stroke:black; stroke-width:1px;" />
<line x1="205.0" y1="100.0" x2="263.0" y2="124.0" style="stroke:black; stroke-width:1px;" />
<line x1="205.0" y1="100.0" x2="299.5" y2="124.0" style="stroke:black; stroke-width:1px;" />
<line x1="249.0" y1="69.0" x2="391.0" y2="93.0" style="stroke:black; stroke-width:1px;" />
<line x1="391.0" y1="100.0" x2="334.5" y2="124.0" style="stroke:black; stroke-width:1px;" />
<line x1="391.0" y1="100.0" x2="369.5" y2="124.0" style="stroke:black; stroke-width:1px;" />
<line x1="391.0" y1="100.0" x2="408.5" y2="124.0" style="stroke:black; stroke-width:1px;" />
<line x1="408.5" y1="131.0" x2="408.5" y2="155.0" style="stroke:black; stroke-width:1px;" />
<line x1="391.0" y1="100.0" x2="447.5" y2="124.0" style="stroke:black; stroke-width:1px;" />
<line x1="249.0" y1="69.0" x2="467.5" y2="93.0" style="stroke:black; stroke-width:1px;" />
<line x1="249.0" y1="69.0" x2="484.0" y2="93.0" style="stroke:black; stroke-width:1px;" />
<line x1="1337.25" y1="7.0" x2="542.5" y2="31.0" style="stroke:black; stroke-width:1px;" />
<line x1="542.5" y1="38.0" x2="542.5" y2="62.0" style="stroke:black; stroke-width:1px;" />
<line x1="542.5" y1="69.0" x2="499.0" y2="93.0" style="stroke:black; stroke-width:1px;" />
<line x1="542.5" y1="69.0" x2="514.0" y2="93.0" style="stroke:black; stroke-width:1px;" />
<line x1="542.5" y1="69.0" x2="550.0" y2="93.0" style="stroke:black; stroke-width:1px;" />
<line x1="550.0" y1="100.0" x2="550.0" y2="124.0" style="stroke:black; stroke-width:1px;" />
<line x1="542.5" y1="69.0" x2="586.0" y2="93.0" style="stroke:black; stroke-width:1px;" />
<line x1="1337.25" y1="7.0" x2="657.5" y2="31.0" style="stroke:black; stroke-width:1px;" />
<line x1="657.5" y1="38.0" x2="657.5" y2="62.0" style="stroke:black; stroke-width:1px;" />
<line x1="657.5" y1="69.0" x2="601.0" y2="93.0" style="stroke:black; stroke-width:1px;" />
<line x1="657.5" y1="69.0" x2="620.5" y2="93.0" style="stroke:black; stroke-width:1px;" />
<line x1="657.5" y1="69.0" x2="669.5" y2="93.0" style="stroke:black; stroke-width:1px;" />
<line x1="669.5" y1="100.0" x2="669.5" y2="124.0" style="stroke:black; stroke-width:1px;" />
<line x1="669.5" y1="131.0" x2="669.5" y2="155.0" style="stroke:black; stroke-width:1px;" />
<line x1="657.5" y1="69.0" x2="714.0" y2="93.0" style="stroke:black; stroke-width:1px;" />
<line x1="1337.25" y1="7.0" x2="808.0" y2="31.0" style="stroke:black; stroke-width:1px;" />
<line x1="808.0" y1="38.0" x2="808.0" y2="62.0" style="stroke:black; stroke-width:1px;" />
<line x1="808.0" y1="69.0" x2="750.0" y2="93.0" style="stroke:black; stroke-width:1px;" />
<line x1="750.0" y1="100.0" x2="750.0" y2="124.0" style="stroke:black; stroke-width:1px;" />
<line x1="808.0" y1="69.0" x2="790.5" y2="93.0" style="stroke:black; stroke-width:1px;" />
<line x1="808.0" y1="69.0" x2="830.5" y2="93.0" style="stroke:black; stroke-width:1px;" />
<line x1="808.0" y1="69.0" x2="866.0" y2="93.0" style="stroke:black; stroke-width:1px;" />
<line x1="1337.25" y1="7.0" x2="967.0" y2="31.0" style="stroke:black; stroke-width:1px;" />
<line x1="967.0" y1="38.0" x2="967.0" y2="62.0" style="stroke:black; stroke-width:1px;" />
<line x1="967.0" y1="69.0" x2="902.0" y2="93.0" style="stroke:black; stroke-width:1px;" />
<line x1="902.0" y1="100.0" x2="877.0" y2="124.0" style="stroke:black; stroke-width:1px;" />
<line x1="902.0" y1="100.0" x2="892.0" y2="124.0" style="stroke:black; stroke-width:1px;" />
<line x1="902.0" y1="100.0" x2="927.0" y2="124.0" style="stroke:black; stroke-width:1px;" />
<line x1="967.0" y1="69.0" x2="942.5" y2="93.0" style="stroke:black; stroke-width:1px;" />
<line x1="967.0" y1="69.0" x2="989.5" y2="93.0" style="stroke:black; stroke-width:1px;" />
<line x1="967.0" y1="69.0" x2="1032.0" y2="93.0" style="stroke:black; stroke-width:1px;" />
<line x1="1337.25" y1="7.0" x2="1095.0" y2="31.0" style="stroke:black; stroke-width:1px;" />
<line x1="1095.0" y1="38.0" x2="1095.0" y2="62.0" style="stroke:black; stroke-width:1px;" />
<line x1="1095.0" y1="69.0" x2="1048.0" y2="93.0" style="stroke:black; stroke-width:1px;" />
<line x1="1095.0" y1="69.0" x2="1064.0" y2="93.0" style="stroke:black; stroke-width:1px;" />
<line x1="1095.0" y1="69.0" x2="1103.0" y2="93.0" style="stroke:black; stroke-width:1px;" />
<line x1="1103.0" y1="100.0" x2="1103.0" y2="124.0" style="stroke:black; stroke-width:1px;" />
<line x1="1095.0" y1="69.0" x2="1142.0" y2="93.0" style="stroke:black; stroke-width:1px;" />
<line x1="1337.25" y1="7.0" x2="1215.0" y2="31.0" style="stroke:black; stroke-width:1px;" />
<line x1="1215.0" y1="38.0" x2="1215.0" y2="62.0" style="stroke:black; stroke-width:1px;" />
<line x1="1215.0" y1="69.0" x2="1158.0" y2="93.0" style="stroke:black; stroke-width:1px;" />
<line x1="1215.0" y1="69.0" x2="1178.5" y2="93.0" style="stroke:black; stroke-width:1px;" />
<line x1="1215.0" y1="69.0" x2="1227.5" y2="93.0" style="stroke:black; stroke-width:1px;" />
<line x1="1227.5" y1="100.0" x2="1227.5" y2="124.0" style="stroke:black; stroke-width:1px;" />
<line x1="1227.5" y1="131.0" x2="1227.5" y2="155.0" style="stroke:black; stroke-width:1px;" />
<line x1="1215.0" y1="69.0" x2="1272.0" y2="93.0" style="stroke:black; stroke-width:1px;" />
<line x1="1337.25" y1="7.0" x2="1392.0" y2="31.0" style="stroke:black; stroke-width:1px;" />
<line x1="1392.0" y1="38.0" x2="1392.0" y2="62.0" style="stroke:black; stroke-width:1px;" />
<line x1="1392.0" y1="69.0" x2="1287.0" y2="93.0" style="stroke:black; stroke-width:1px;" />
<line x1="1392.0" y1="69.0" x2="1341.5" y2="93.0" style="stroke:black; stroke-width:1px;" />
<line x1="1341.5" y1="100.0" x2="1297.0" y2="124.0" style="stroke:black; stroke-width:1px;" />
<line x1="1297.0" y1="131.0" x2="1297.0" y2="155.0" style="stroke:black; stroke-width:1px;" />
<line x1="1297.0" y1="162.0" x2="1297.0" y2="186.0" style="stroke:black; stroke-width:1px;" />
<line x1="1341.5" y1="100.0" x2="1341.5" y2="124.0" style="stroke:black; stroke-width:1px;" />
<line x1="1341.5" y1="100.0" x2="1386.0" y2="124.0" style="stroke:black; stroke-width:1px;" />
<line x1="1386.0" y1="131.0" x2="1386.0" y2="155.0" style="stroke:black; stroke-width:1px;" />
<line x1="1386.0" y1="162.0" x2="1386.0" y2="186.0" style="stroke:black; stroke-width:1px;" />
<line x1="1392.0" y1="69.0" x2="1396.0" y2="93.0" style="stroke:black; stroke-width:1px;" />
<line x1="1392.0" y1="69.0" x2="1418.0" y2="93.0" style="stroke:black; stroke-width:1px;" />
<line x1="1392.0" y1="69.0" x2="1461.0" y2="93.0" style="stroke:black; stroke-width:1px;" />
<line x1="1461.0" y1="100.0" x2="1461.0" y2="124.0" style="stroke:black; stroke-width:1px;" />
<line x1="1392.0" y1="69.0" x2="1497.0" y2="93.0" style="stroke:black; stroke-width:1px;" />
<line x1="1337.25" y1="7.0" x2="1570.0" y2="31.0" style="stroke:black; stroke-width:1px;" />
<line x1="1570.0" y1="38.0" x2="1570.0" y2="62.0" style="stroke:black; stroke-width:1px;" />
<line x1="1570.0" y1="69.0" x2="1513.0" y2="93.0" style="stroke:black; stroke-width:1px;" />
<line x1="1570.0" y1="69.0" x2="1533.5" y2="93.0" style="stroke:black; stroke-width:1px;" />
<line x1="1570.0" y1="69.0" x2="1582.5" y2="93.0" style="stroke:black; stroke-width:1px;" />
<line x1="1582.5" y1="100.0" x2="1545.0" y2="124.0" style="stroke:black; stroke-width:1px;" />
<line x1="1545.0" y1="131.0" x2="1545.0" y2="155.0" style="stroke:black; stroke-width:1px;" />
<line x1="1582.5" y1="100.0" x2="1582.5" y2="124.0" style="stroke:black; stroke-width:1px;" />
<line x1="1582.5" y1="100.0" x2="1620.0" y2="124.0" style="stroke:black; stroke-width:1px;" />
<line x1="1620.0" y1="131.0" x2="1620.0" y2="155.0" style="stroke:black; stroke-width:1px;" />
<line x1="1570.0" y1="69.0" x2="1627.0" y2="93.0" style="stroke:black; stroke-width:1px;" />
<line x1="1337.25" y1="7.0" x2="1779.5" y2="31.0" style="stroke:black; stroke-width:1px;" />
<line x1="1779.5" y1="38.0" x2="1779.5" y2="62.0" style="stroke:black; stroke-width:1px;" />
<line x1="1779.5" y1="69.0" x2="1674.5" y2="93.0" style="stroke:black; stroke-width:1px;" />
<line x1="1779.5" y1="69.0" x2="1729.0" y2="93.0" style="stroke:black; stroke-width:1px;" />
<line x1="1729.0" y1="100.0" x2="1684.5" y2="124.0" style="stroke:black; stroke-width:1px;" />
<line x1="1684.5" y1="131.0" x2="1684.5" y2="155.0" style="stroke:black; stroke-width:1px;" />
<line x1="1684.5" y1="162.0" x2="1684.5" y2="186.0" style="stroke:black; stroke-width:1px;" />
<line x1="1729.0" y1="100.0" x2="1729.0" y2="124.0" style="stroke:black; stroke-width:1px;" />
<line x1="1729.0" y1="100.0" x2="1773.5" y2="124.0" style="stroke:black; stroke-width:1px;" />
<line x1="1773.5" y1="131.0" x2="1773.5" y2="155.0" style="stroke:black; stroke-width:1px;" />
<line x1="1773.5" y1="162.0" x2="1773.5" y2="186.0" style="stroke:black; stroke-width:1px;" />
<line x1="1779.5" y1="69.0" x2="1783.5" y2="93.0" style="stroke:black; stroke-width:1px;" />
<line x1="1779.5" y1="69.0" x2="1805.5" y2="93.0" style="stroke:black; stroke-width:1px;" />
<line x1="1779.5" y1="69.0" x2="1848.5" y2="93.0" style="stroke:black; stroke-width:1px;" />
<line x1="1848.5" y1="100.0" x2="1848.5" y2="124.0" style="stroke:black; stroke-width:1px;" />
<line x1="1779.5" y1="69.0" x2="1884.5" y2="93.0" style="stroke:black; stroke-width:1px;" />
<line x1="1337.25" y1="7.0" x2="1957.5" y2="31.0" style="stroke:black; stroke-width:1px;" />
<line x1="1957.5" y1="38.0" x2="1957.5" y2="62.0" style="stroke:black; stroke-width:1px;" />
<line x1="1957.5" y1="69.0" x2="1900.5" y2="93.0" style="stroke:black; stroke-width:1px;" />
<line x1="1957.5" y1="69.0" x2="1921.0" y2="93.0" style="stroke:black; stroke-width:1px;" />
<line x1="1957.5" y1="69.0" x2="1970.0" y2="93.0" style="stroke:black; stroke-width:1px;" />
<line x1="1970.0" y1="100.0" x2="1932.5" y2="124.0" style="stroke:black; stroke-width:1px;" />
<line x1="1932.5" y1="131.0" x2="1932.5" y2="155.0" style="stroke:black; stroke-width:1px;" />
<line x1="1970.0" y1="100.0" x2="1970.0" y2="124.0" style="stroke:black; stroke-width:1px;" />
<line x1="1970.0" y1="100.0" x2="2007.5" y2="124.0" style="stroke:black; stroke-width:1px;" />
<line x1="2007.5" y1="131.0" x2="2007.5" y2="155.0" style="stroke:black; stroke-width:1px;" />
<line x1="1957.5" y1="69.0" x2="2014.5" y2="93.0" style="stroke:black; stroke-width:1px;" />
<line x1="1337.25" y1="7.0" x2="2167.0" y2="31.0" style="stroke:black; stroke-width:1px;" />
<line x1="2167.0" y1="38.0" x2="2167.0" y2="62.0" style="stroke:black; stroke-width:1px;" />
<line x1="2167.0" y1="69.0" x2="2062.0" y2="93.0" style="stroke:black; stroke-width:1px;" />
<line x1="2167.0" y1="69.0" x2="2116.5" y2="93.0" style="stroke:black; stroke-width:1px;" />
<line x1="2116.5" y1="100.0" x2="2072.0" y2="124.0" style="stroke:black; stroke-width:1px;" />
<line x1="2072.0" y1="131.0" x2="2072.0" y2="155.0" style="stroke:black; stroke-width:1px;" />
<line x1="2072.0" y1="162.0" x2="2072.0" y2="186.0" style="stroke:black; stroke-width:1px;" />
<line x1="2116.5" y1="100.0" x2="2116.5" y2="124.0" style="stroke:black; stroke-width:1px;" />
<line x1="2116.5" y1="100.0" x2="2161.0" y2="124.0" style="stroke:black; stroke-width:1px;" />
<line x1="2161.0" y1="131.0" x2="2161.0" y2="155.0" style="stroke:black; stroke-width:1px;" />
<line x1="2161.0" y1="162.0" x2="2161.0" y2="186.0" style="stroke:black; stroke-width:1px;" />
<line x1="2167.0" y1="69.0" x2="2171.0" y2="93.0" style="stroke:black; stroke-width:1px;" />
<line x1="2167.0" y1="69.0" x2="2193.0" y2="93.0" style="stroke:black; stroke-width:1px;" />
<line x1="2167.0" y1="69.0" x2="2236.0" y2="93.0" style="stroke:black; stroke-width:1px;" />
<line x1="2236.0" y1="100.0" x2="2236.0" y2="124.0" style="stroke:black; stroke-width:1px;" />
<line x1="2167.0" y1="69.0" x2="2272.0" y2="93.0" style="stroke:black; stroke-width:1px;" />
<line x1="1337.25" y1="7.0" x2="2365.5" y2="31.0" style="stroke:black; stroke-width:1px;" />
<line x1="2365.5" y1="38.0" x2="2365.5" y2="62.0" style="stroke:black; stroke-width:1px;" />
<line x1="2365.5" y1="69.0" x2="2303.0" y2="93.0" style="stroke:black; stroke-width:1px;" />
<line x1="2365.5" y1="69.0" x2="2373.5" y2="93.0" style="stroke:black; stroke-width:1px;" />
<line x1="2373.5" y1="100.0" x2="2373.5" y2="124.0" style="stroke:black; stroke-width:1px;" />
<line x1="2373.5" y1="131.0" x2="2373.5" y2="155.0" style="stroke:black; stroke-width:1px;" />
<line x1="2373.5" y1="162.0" x2="2373.5" y2="186.0" style="stroke:black; stroke-width:1px;" />
<line x1="2365.5" y1="69.0" x2="2428.0" y2="93.0" style="stroke:black; stroke-width:1px;" />
<line x1="1337.25" y1="7.0" x2="2425.5" y2="31.0" style="stroke:black; stroke-width:1px;" />
<rect x="1549.0" y="93.0" width="67.0" height="14.0" style="fill:orange; stroke:rgb(0,0,0);" rx="1"/>
<text x="1551" y="102" style="font-family:sans-serif;font-size:10px;">
expression
</text>
<rect x="1059.5" y="62.0" width="71.0" height="14.0" style="fill:orange; stroke:rgb(0,0,0);" rx="1"/>
<text x="1061" y="71" style="font-family:sans-serif;font-size:10px;">
assignment
</text>
<rect x="495.0" y="93.0" width="8.0" height="14.0" style="fill:orange; stroke:rgb(0,0,0);" rx="1"/>
<text x="497" y="102" style="font-family:sans-serif;font-size:10px;">
t
</text>
<rect x="2136.0" y="31.0" width="62.0" height="14.0" style="fill:orange; stroke:rgb(0,0,0);" rx="1"/>
<text x="2138" y="40" style="font-family:sans-serif;font-size:10px;">
statement
</text>
<rect x="1912.5" y="93.0" width="17.0" height="14.0" style="fill:orange; stroke:rgb(0,0,0);" rx="1"/>
<text x="1914" y="102" style="font-family:sans-serif;font-size:10px;">
:=
</text>
<rect x="2182.0" y="93.0" width="22.0" height="14.0" style="fill:orange; stroke:rgb(0,0,0);" rx="1"/>
<text x="2184" y="102" style="font-family:sans-serif;font-size:10px;">
&gt;&gt;
</text>
<rect x="2334.5" y="31.0" width="62.0" height="14.0" style="fill:orange; stroke:rgb(0,0,0);" rx="1"/>
<text x="2336" y="40" style="font-family:sans-serif;font-size:10px;">
statement
</text>
<rect x="597.0" y="93.0" width="8.0" height="14.0" style="fill:orange; stroke:rgb(0,0,0);" rx="1"/>
<text x="599" y="102" style="font-family:sans-serif;font-size:10px;">
t
</text>
<rect x="862.0" y="93.0" width="8.0" height="14.0" style="fill:orange; stroke:rgb(0,0,0);" rx="1"/>
<text x="864" y="102" style="font-family:sans-serif;font-size:10px;">
;
</text>
<rect x="934.0" y="93.0" width="17.0" height="14.0" style="fill:orange; stroke:rgb(0,0,0);" rx="1"/>
<text x="936" y="102" style="font-family:sans-serif;font-size:10px;">
-&gt;
</text>
<rect x="1075.0" y="93.0" width="56.0" height="14.0" style="fill:orange; stroke:rgb(0,0,0);" rx="1"/>
<text x="1077" y="102" style="font-family:sans-serif;font-size:10px;">
dataType
</text>
<rect x="1273.0" y="155.0" width="48.0" height="14.0" style="fill:orange; stroke:rgb(0,0,0);" rx="1"/>
<text x="1275" y="164" style="font-family:sans-serif;font-size:10px;">
primary
</text>
<rect x="1310.75" y="0.0" width="53.0" height="14.0" style="fill:orange; stroke:rgb(0,0,0);" rx="1"/>
<text x="1312" y="9" style="font-family:sans-serif;font-size:10px;">
program
</text>
<rect x="1081.0" y="124.0" width="44.0" height="14.0" style="fill:orange; stroke:rgb(0,0,0);" rx="1"/>
<text x="1083" y="133" style="font-family:sans-serif;font-size:10px;">
integer
</text>
<rect x="1768.5" y="186.0" width="10.0" height="14.0" style="fill:orange; stroke:rgb(0,0,0);" rx="1"/>
<text x="1770" y="195" style="font-family:sans-serif;font-size:10px;">
c
</text>
<rect x="1670.5" y="93.0" width="8.0" height="14.0" style="fill:orange; stroke:rgb(0,0,0);" rx="1"/>
<text x="1672" y="102" style="font-family:sans-serif;font-size:10px;">
[
</text>
<rect x="1963.5" y="124.0" width="13.0" height="14.0" style="fill:orange; stroke:rgb(0,0,0);" rx="1"/>
<text x="1965" y="133" style="font-family:sans-serif;font-size:10px;">
+
</text>
<rect x="2112.5" y="124.0" width="8.0" height="14.0" style="fill:orange; stroke:rgb(0,0,0);" rx="1"/>
<text x="2114" y="133" style="font-family:sans-serif;font-size:10px;">
,
</text>
<rect x="636.0" y="93.0" width="67.0" height="14.0" style="fill:orange; stroke:rgb(0,0,0);" rx="1"/>
<text x="638" y="102" style="font-family:sans-serif;font-size:10px;">
expression
</text>
<rect x="123.0" y="93.0" width="11.0" height="14.0" style="fill:orange; stroke:rgb(0,0,0);" rx="1"/>
<text x="125" y="102" style="font-family:sans-serif;font-size:10px;">
{
</text>
<rect x="1263.5" y="124.0" width="67.0" height="14.0" style="fill:orange; stroke:rgb(0,0,0);" rx="1"/>
<text x="1265" y="133" style="font-family:sans-serif;font-size:10px;">
expression
</text>
<rect x="1362.0" y="155.0" width="48.0" height="14.0" style="fill:orange; stroke:rgb(0,0,0);" rx="1"/>
<text x="1364" y="164" style="font-family:sans-serif;font-size:10px;">
primary
</text>
<rect x="213.5" y="124.0" width="17.0" height="14.0" style="fill:orange; stroke:rgb(0,0,0);" rx="1"/>
<text x="215" y="133" style="font-family:sans-serif;font-size:10px;">
-&gt;
</text>
<rect x="756.5" y="62.0" width="103.0" height="14.0" style="fill:orange; stroke:rgb(0,0,0);" rx="1"/>
<text x="758" y="71" style="font-family:sans-serif;font-size:10px;">
headerStatement
</text>
<rect x="656.0" y="155.0" width="27.0" height="14.0" style="fill:orange; stroke:rgb(0,0,0);" rx="1"/>
<text x="658" y="164" style="font-family:sans-serif;font-size:10px;">
new
</text>
<rect x="1278.5" y="186.0" width="37.0" height="14.0" style="fill:orange; stroke:rgb(0,0,0);" rx="1"/>
<text x="1280" y="195" style="font-family:sans-serif;font-size:10px;">
"One"
</text>
<rect x="1880.5" y="93.0" width="8.0" height="14.0" style="fill:orange; stroke:rgb(0,0,0);" rx="1"/>
<text x="1882" y="102" style="font-family:sans-serif;font-size:10px;">
;
</text>
<rect x="2113.5" y="62.0" width="107.0" height="14.0" style="fill:orange; stroke:rgb(0,0,0);" rx="1"/>
<text x="2115" y="71" style="font-family:sans-serif;font-size:10px;">
addRowStatement
</text>
<rect x="1660.5" y="155.0" width="48.0" height="14.0" style="fill:orange; stroke:rgb(0,0,0);" rx="1"/>
<text x="1662" y="164" style="font-family:sans-serif;font-size:10px;">
primary
</text>
<rect x="2073.0" y="93.0" width="87.0" height="14.0" style="fill:orange; stroke:rgb(0,0,0);" rx="1"/>
<text x="2075" y="102" style="font-family:sans-serif;font-size:10px;">
expressionList
</text>
<rect x="74.0" y="93.0" width="42.0" height="14.0" style="fill:orange; stroke:rgb(0,0,0);" rx="1"/>
<text x="76" y="102" style="font-family:sans-serif;font-size:10px;">
ATable
</text>
<rect x="310.5" y="124.0" width="48.0" height="14.0" style="fill:orange; stroke:rgb(0,0,0);" rx="1"/>
<text x="312" y="133" style="font-family:sans-serif;font-size:10px;">
number
</text>
<rect x="529.0" y="124.0" width="42.0" height="14.0" style="fill:orange; stroke:rgb(0,0,0);" rx="1"/>
<text x="531" y="133" style="font-family:sans-serif;font-size:10px;">
ATable
</text>
<rect x="1685.5" y="93.0" width="87.0" height="14.0" style="fill:orange; stroke:rgb(0,0,0);" rx="1"/>
<text x="1687" y="102" style="font-family:sans-serif;font-size:10px;">
expressionList
</text>
<rect x="2002.0" y="155.0" width="11.0" height="14.0" style="fill:orange; stroke:rgb(0,0,0);" rx="1"/>
<text x="2004" y="164" style="font-family:sans-serif;font-size:10px;">
1
</text>
<rect x="365.5" y="124.0" width="8.0" height="14.0" style="fill:orange; stroke:rgb(0,0,0);" rx="1"/>
<text x="367" y="133" style="font-family:sans-serif;font-size:10px;">
:
</text>
<rect x="1268.0" y="93.0" width="8.0" height="14.0" style="fill:orange; stroke:rgb(0,0,0);" rx="1"/>
<text x="1270" y="102" style="font-family:sans-serif;font-size:10px;">
;
</text>
<rect x="1521.0" y="124.0" width="48.0" height="14.0" style="fill:orange; stroke:rgb(0,0,0);" rx="1"/>
<text x="1523" y="133" style="font-family:sans-serif;font-size:10px;">
primary
</text>
<rect x="1926.5" y="31.0" width="62.0" height="14.0" style="fill:orange; stroke:rgb(0,0,0);" rx="1"/>
<text x="1928" y="40" style="font-family:sans-serif;font-size:10px;">
statement
</text>
<rect x="1337.5" y="124.0" width="8.0" height="14.0" style="fill:orange; stroke:rgb(0,0,0);" rx="1"/>
<text x="1339" y="133" style="font-family:sans-serif;font-size:10px;">
,
</text>
<rect x="380.5" y="124.0" width="56.0" height="14.0" style="fill:orange; stroke:rgb(0,0,0);" rx="1"/>
<text x="382" y="133" style="font-family:sans-serif;font-size:10px;">
dataType
</text>
<rect x="958.0" y="93.0" width="63.0" height="14.0" style="fill:orange; stroke:rgb(0,0,0);" rx="1"/>
<text x="960" y="102" style="font-family:sans-serif;font-size:10px;">
"Number:"
</text>
<rect x="1043.0" y="93.0" width="10.0" height="14.0" style="fill:orange; stroke:rgb(0,0,0);" rx="1"/>
<text x="1045" y="102" style="font-family:sans-serif;font-size:10px;">
c
</text>
<rect x="1748.5" y="31.0" width="62.0" height="14.0" style="fill:orange; stroke:rgb(0,0,0);" rx="1"/>
<text x="1750" y="40" style="font-family:sans-serif;font-size:10px;">
statement
</text>
<rect x="1283.0" y="93.0" width="8.0" height="14.0" style="fill:orange; stroke:rgb(0,0,0);" rx="1"/>
<text x="1285" y="102" style="font-family:sans-serif;font-size:10px;">
[
</text>
<rect x="135.5" y="124.0" width="8.0" height="14.0" style="fill:orange; stroke:rgb(0,0,0);" rx="1"/>
<text x="137" y="133" style="font-family:sans-serif;font-size:10px;">
:
</text>
<rect x="1153.0" y="93.0" width="10.0" height="14.0" style="fill:orange; stroke:rgb(0,0,0);" rx="1"/>
<text x="1155" y="102" style="font-family:sans-serif;font-size:10px;">
c
</text>
<rect x="1203.5" y="124.0" width="48.0" height="14.0" style="fill:orange; stroke:rgb(0,0,0);" rx="1"/>
<text x="1205" y="133" style="font-family:sans-serif;font-size:10px;">
primary
</text>
<rect x="218.0" y="31.0" width="62.0" height="14.0" style="fill:orange; stroke:rgb(0,0,0);" rx="1"/>
<text x="220" y="40" style="font-family:sans-serif;font-size:10px;">
statement
</text>
<rect x="1407.0" y="93.0" width="22.0" height="14.0" style="fill:orange; stroke:rgb(0,0,0);" rx="1"/>
<text x="1409" y="102" style="font-family:sans-serif;font-size:10px;">
&gt;&gt;
</text>
<rect x="1908.5" y="124.0" width="48.0" height="14.0" style="fill:orange; stroke:rgb(0,0,0);" rx="1"/>
<text x="1910" y="133" style="font-family:sans-serif;font-size:10px;">
primary
</text>
<rect x="1983.5" y="124.0" width="48.0" height="14.0" style="fill:orange; stroke:rgb(0,0,0);" rx="1"/>
<text x="1985" y="133" style="font-family:sans-serif;font-size:10px;">
primary
</text>
<rect x="1927.5" y="155.0" width="10.0" height="14.0" style="fill:orange; stroke:rgb(0,0,0);" rx="1"/>
<text x="1929" y="164" style="font-family:sans-serif;font-size:10px;">
c
</text>
<rect x="150.5" y="124.0" width="56.0" height="14.0" style="fill:orange; stroke:rgb(0,0,0);" rx="1"/>
<text x="152" y="133" style="font-family:sans-serif;font-size:10px;">
dataType
</text>
<rect x="2349.5" y="155.0" width="48.0" height="14.0" style="fill:orange; stroke:rgb(0,0,0);" rx="1"/>
<text x="2351" y="164" style="font-family:sans-serif;font-size:10px;">
primary
</text>
<rect x="915.5" y="62.0" width="103.0" height="14.0" style="fill:orange; stroke:rgb(0,0,0);" rx="1"/>
<text x="917" y="71" style="font-family:sans-serif;font-size:10px;">
headerStatement
</text>
<rect x="237.5" y="124.0" width="51.0" height="14.0" style="fill:orange; stroke:rgb(0,0,0);" rx="1"/>
<text x="239" y="133" style="font-family:sans-serif;font-size:10px;">
"Name:"
</text>
<rect x="525.0" y="93.0" width="50.0" height="14.0" style="fill:orange; stroke:rgb(0,0,0);" rx="1"/>
<text x="527" y="102" style="font-family:sans-serif;font-size:10px;">
tableRef
</text>
<rect x="1222.0" y="155.0" width="11.0" height="14.0" style="fill:orange; stroke:rgb(0,0,0);" rx="1"/>
<text x="1224" y="164" style="font-family:sans-serif;font-size:10px;">
1
</text>
<rect x="645.5" y="124.0" width="48.0" height="14.0" style="fill:orange; stroke:rgb(0,0,0);" rx="1"/>
<text x="647" y="133" style="font-family:sans-serif;font-size:10px;">
primary
</text>
<rect x="92.5" y="124.0" width="36.0" height="14.0" style="fill:orange; stroke:rgb(0,0,0);" rx="1"/>
<text x="94" y="133" style="font-family:sans-serif;font-size:10px;">
name
</text>
<rect x="612.0" y="93.0" width="17.0" height="14.0" style="fill:orange; stroke:rgb(0,0,0);" rx="1"/>
<text x="614" y="102" style="font-family:sans-serif;font-size:10px;">
:=
</text>
<rect x="1179.5" y="62.0" width="71.0" height="14.0" style="fill:orange; stroke:rgb(0,0,0);" rx="1"/>
<text x="1181" y="71" style="font-family:sans-serif;font-size:10px;">
assignment
</text>
<rect x="295.5" y="124.0" width="8.0" height="14.0" style="fill:orange; stroke:rgb(0,0,0);" rx="1"/>
<text x="297" y="133" style="font-family:sans-serif;font-size:10px;">
;
</text>
<rect x="1361.0" y="31.0" width="62.0" height="14.0" style="fill:orange; stroke:rgb(0,0,0);" rx="1"/>
<text x="1363" y="40" style="font-family:sans-serif;font-size:10px;">
statement
</text>
<rect x="1525.0" y="93.0" width="17.0" height="14.0" style="fill:orange; stroke:rgb(0,0,0);" rx="1"/>
<text x="1527" y="102" style="font-family:sans-serif;font-size:10px;">
:=
</text>
<rect x="2048.0" y="155.0" width="48.0" height="14.0" style="fill:orange; stroke:rgb(0,0,0);" rx="1"/>
<text x="2050" y="164" style="font-family:sans-serif;font-size:10px;">
primary
</text>
<rect x="782.0" y="93.0" width="17.0" height="14.0" style="fill:orange; stroke:rgb(0,0,0);" rx="1"/>
<text x="784" y="102" style="font-family:sans-serif;font-size:10px;">
-&gt;
</text>
<rect x="2330.0" y="93.0" width="87.0" height="14.0" style="fill:orange; stroke:rgb(0,0,0);" rx="1"/>
<text x="2332" y="102" style="font-family:sans-serif;font-size:10px;">
expressionList
</text>
<rect x="1436.0" y="93.0" width="50.0" height="14.0" style="fill:orange; stroke:rgb(0,0,0);" rx="1"/>
<text x="1438" y="102" style="font-family:sans-serif;font-size:10px;">
tableRef
</text>
<rect x="1922.0" y="62.0" width="71.0" height="14.0" style="fill:orange; stroke:rgb(0,0,0);" rx="1"/>
<text x="1924" y="71" style="font-family:sans-serif;font-size:10px;">
assignment
</text>
<rect x="1060.0" y="93.0" width="8.0" height="14.0" style="fill:orange; stroke:rgb(0,0,0);" rx="1"/>
<text x="1062" y="102" style="font-family:sans-serif;font-size:10px;">
:
</text>
<rect x="462.0" y="93.0" width="11.0" height="14.0" style="fill:orange; stroke:rgb(0,0,0);" rx="1"/>
<text x="464" y="102" style="font-family:sans-serif;font-size:10px;">
}
</text>
<rect x="746.0" y="124.0" width="8.0" height="14.0" style="fill:orange; stroke:rgb(0,0,0);" rx="1"/>
<text x="748" y="133" style="font-family:sans-serif;font-size:10px;">
t
</text>
<rect x="1895.5" y="93.0" width="10.0" height="14.0" style="fill:orange; stroke:rgb(0,0,0);" rx="1"/>
<text x="1897" y="102" style="font-family:sans-serif;font-size:10px;">
c
</text>
<rect x="710.0" y="93.0" width="8.0" height="14.0" style="fill:orange; stroke:rgb(0,0,0);" rx="1"/>
<text x="712" y="102" style="font-family:sans-serif;font-size:10px;">
;
</text>
<rect x="1823.5" y="93.0" width="50.0" height="14.0" style="fill:orange; stroke:rgb(0,0,0);" rx="1"/>
<text x="1825" y="102" style="font-family:sans-serif;font-size:10px;">
tableRef
</text>
<rect x="1936.5" y="93.0" width="67.0" height="14.0" style="fill:orange; stroke:rgb(0,0,0);" rx="1"/>
<text x="1938" y="102" style="font-family:sans-serif;font-size:10px;">
expression
</text>
<rect x="480.0" y="93.0" width="8.0" height="14.0" style="fill:orange; stroke:rgb(0,0,0);" rx="1"/>
<text x="482" y="102" style="font-family:sans-serif;font-size:10px;">
;
</text>
<rect x="873.0" y="124.0" width="8.0" height="14.0" style="fill:orange; stroke:rgb(0,0,0);" rx="1"/>
<text x="875" y="133" style="font-family:sans-serif;font-size:10px;">
t
</text>
<rect x="903.0" y="124.0" width="48.0" height="14.0" style="fill:orange; stroke:rgb(0,0,0);" rx="1"/>
<text x="905" y="133" style="font-family:sans-serif;font-size:10px;">
number
</text>
<rect x="1740.0" y="124.0" width="67.0" height="14.0" style="fill:orange; stroke:rgb(0,0,0);" rx="1"/>
<text x="1742" y="133" style="font-family:sans-serif;font-size:10px;">
expression
</text>
<rect x="1493.0" y="93.0" width="8.0" height="14.0" style="fill:orange; stroke:rgb(0,0,0);" rx="1"/>
<text x="1495" y="102" style="font-family:sans-serif;font-size:10px;">
;
</text>
<rect x="386.5" y="155.0" width="44.0" height="14.0" style="fill:orange; stroke:rgb(0,0,0);" rx="1"/>
<text x="388" y="164" style="font-family:sans-serif;font-size:10px;">
integer
</text>
<rect x="1170.0" y="93.0" width="17.0" height="14.0" style="fill:orange; stroke:rgb(0,0,0);" rx="1"/>
<text x="1172" y="102" style="font-family:sans-serif;font-size:10px;">
:=
</text>
<rect x="1381.0" y="186.0" width="10.0" height="14.0" style="fill:orange; stroke:rgb(0,0,0);" rx="1"/>
<text x="1383" y="195" style="font-family:sans-serif;font-size:10px;">
c
</text>
<rect x="1508.0" y="93.0" width="10.0" height="14.0" style="fill:orange; stroke:rgb(0,0,0);" rx="1"/>
<text x="1510" y="102" style="font-family:sans-serif;font-size:10px;">
c
</text>
<rect x="1725.0" y="124.0" width="8.0" height="14.0" style="fill:orange; stroke:rgb(0,0,0);" rx="1"/>
<text x="1727" y="133" style="font-family:sans-serif;font-size:10px;">
,
</text>
<rect x="206.5" y="62.0" width="85.0" height="14.0" style="fill:orange; stroke:rgb(0,0,0);" rx="1"/>
<text x="208" y="71" style="font-family:sans-serif;font-size:10px;">
tableDefinition
</text>
<rect x="1844.5" y="124.0" width="8.0" height="14.0" style="fill:orange; stroke:rgb(0,0,0);" rx="1"/>
<text x="1846" y="133" style="font-family:sans-serif;font-size:10px;">
t
</text>
<rect x="141.0" y="93.0" width="128.0" height="14.0" style="fill:orange; stroke:rgb(0,0,0);" rx="1"/>
<text x="143" y="102" style="font-family:sans-serif;font-size:10px;">
tableColumnDefinition
</text>
<rect x="2167.0" y="93.0" width="8.0" height="14.0" style="fill:orange; stroke:rgb(0,0,0);" rx="1"/>
<text x="2169" y="102" style="font-family:sans-serif;font-size:10px;">
]
</text>
<rect x="777.0" y="31.0" width="62.0" height="14.0" style="fill:orange; stroke:rgb(0,0,0);" rx="1"/>
<text x="779" y="40" style="font-family:sans-serif;font-size:10px;">
statement
</text>
<rect x="725.0" y="93.0" width="50.0" height="14.0" style="fill:orange; stroke:rgb(0,0,0);" rx="1"/>
<text x="727" y="102" style="font-family:sans-serif;font-size:10px;">
tableRef
</text>
<rect x="936.0" y="31.0" width="62.0" height="14.0" style="fill:orange; stroke:rgb(0,0,0);" rx="1"/>
<text x="938" y="40" style="font-family:sans-serif;font-size:10px;">
statement
</text>
<rect x="806.0" y="93.0" width="49.0" height="14.0" style="fill:orange; stroke:rgb(0,0,0);" rx="1"/>
<text x="808" y="102" style="font-family:sans-serif;font-size:10px;">
"Table:"
</text>
<rect x="888.0" y="124.0" width="8.0" height="14.0" style="fill:orange; stroke:rgb(0,0,0);" rx="1"/>
<text x="890" y="133" style="font-family:sans-serif;font-size:10px;">
.
</text>
<rect x="1749.5" y="155.0" width="48.0" height="14.0" style="fill:orange; stroke:rgb(0,0,0);" rx="1"/>
<text x="1751" y="164" style="font-family:sans-serif;font-size:10px;">
primary
</text>
<rect x="2232.0" y="124.0" width="8.0" height="14.0" style="fill:orange; stroke:rgb(0,0,0);" rx="1"/>
<text x="2234" y="133" style="font-family:sans-serif;font-size:10px;">
t
</text>
<rect x="1623.0" y="93.0" width="8.0" height="14.0" style="fill:orange; stroke:rgb(0,0,0);" rx="1"/>
<text x="1625" y="102" style="font-family:sans-serif;font-size:10px;">
;
</text>
<rect x="2340.0" y="124.0" width="67.0" height="14.0" style="fill:orange; stroke:rgb(0,0,0);" rx="1"/>
<text x="2342" y="133" style="font-family:sans-serif;font-size:10px;">
expression
</text>
<rect x="2156.0" y="186.0" width="10.0" height="14.0" style="fill:orange; stroke:rgb(0,0,0);" rx="1"/>
<text x="2158" y="195" style="font-family:sans-serif;font-size:10px;">
c
</text>
<rect x="511.5" y="31.0" width="62.0" height="14.0" style="fill:orange; stroke:rgb(0,0,0);" rx="1"/>
<text x="513" y="40" style="font-family:sans-serif;font-size:10px;">
statement
</text>
<rect x="1184.0" y="31.0" width="62.0" height="14.0" style="fill:orange; stroke:rgb(0,0,0);" rx="1"/>
<text x="1186" y="40" style="font-family:sans-serif;font-size:10px;">
statement
</text>
<rect x="2058.0" y="93.0" width="8.0" height="14.0" style="fill:orange; stroke:rgb(0,0,0);" rx="1"/>
<text x="2060" y="102" style="font-family:sans-serif;font-size:10px;">
[
</text>
<rect x="2048.5" y="186.0" width="47.0" height="14.0" style="fill:orange; stroke:rgb(0,0,0);" rx="1"/>
<text x="2050" y="195" style="font-family:sans-serif;font-size:10px;">
"Three"
</text>
<rect x="1794.5" y="93.0" width="22.0" height="14.0" style="fill:orange; stroke:rgb(0,0,0);" rx="1"/>
<text x="1796" y="102" style="font-family:sans-serif;font-size:10px;">
&gt;&gt;
</text>
<rect x="1651.0" y="124.0" width="67.0" height="14.0" style="fill:orange; stroke:rgb(0,0,0);" rx="1"/>
<text x="1653" y="133" style="font-family:sans-serif;font-size:10px;">
expression
</text>
<rect x="327.0" y="93.0" width="128.0" height="14.0" style="fill:orange; stroke:rgb(0,0,0);" rx="1"/>
<text x="329" y="102" style="font-family:sans-serif;font-size:10px;">
tableColumnDefinition
</text>
<rect x="2127.5" y="124.0" width="67.0" height="14.0" style="fill:orange; stroke:rgb(0,0,0);" rx="1"/>
<text x="2129" y="133" style="font-family:sans-serif;font-size:10px;">
expression
</text>
<rect x="2369.5" y="186.0" width="8.0" height="14.0" style="fill:orange; stroke:rgb(0,0,0);" rx="1"/>
<text x="2371" y="195" style="font-family:sans-serif;font-size:10px;">
t
</text>
<rect x="1666.0" y="186.0" width="37.0" height="14.0" style="fill:orange; stroke:rgb(0,0,0);" rx="1"/>
<text x="1668" y="195" style="font-family:sans-serif;font-size:10px;">
"Two"
</text>
<rect x="1779.5" y="93.0" width="8.0" height="14.0" style="fill:orange; stroke:rgb(0,0,0);" rx="1"/>
<text x="1781" y="102" style="font-family:sans-serif;font-size:10px;">
]
</text>
<rect x="1028.0" y="93.0" width="8.0" height="14.0" style="fill:orange; stroke:rgb(0,0,0);" rx="1"/>
<text x="1030" y="102" style="font-family:sans-serif;font-size:10px;">
;
</text>
<rect x="35.0" y="93.0" width="32.0" height="14.0" style="fill:orange; stroke:rgb(0,0,0);" rx="1"/>
<text x="37" y="102" style="font-family:sans-serif;font-size:10px;">
table
</text>
<rect x="1614.5" y="155.0" width="11.0" height="14.0" style="fill:orange; stroke:rgb(0,0,0);" rx="1"/>
<text x="1616" y="164" style="font-family:sans-serif;font-size:10px;">
1
</text>
<rect x="1576.0" y="124.0" width="13.0" height="14.0" style="fill:orange; stroke:rgb(0,0,0);" rx="1"/>
<text x="1578" y="133" style="font-family:sans-serif;font-size:10px;">
+
</text>
<rect x="1726.0" y="62.0" width="107.0" height="14.0" style="fill:orange; stroke:rgb(0,0,0);" rx="1"/>
<text x="1728" y="71" style="font-family:sans-serif;font-size:10px;">
addRowStatement
</text>
<rect x="1194.0" y="93.0" width="67.0" height="14.0" style="fill:orange; stroke:rgb(0,0,0);" rx="1"/>
<text x="1196" y="102" style="font-family:sans-serif;font-size:10px;">
expression
</text>
<rect x="1596.0" y="124.0" width="48.0" height="14.0" style="fill:orange; stroke:rgb(0,0,0);" rx="1"/>
<text x="1598" y="133" style="font-family:sans-serif;font-size:10px;">
primary
</text>
<rect x="2268.0" y="93.0" width="8.0" height="14.0" style="fill:orange; stroke:rgb(0,0,0);" rx="1"/>
<text x="2270" y="102" style="font-family:sans-serif;font-size:10px;">
;
</text>
<rect x="2283.0" y="93.0" width="40.0" height="14.0" style="fill:orange; stroke:rgb(0,0,0);" rx="1"/>
<text x="2285" y="102" style="font-family:sans-serif;font-size:10px;">
println
</text>
<rect x="166.0" y="155.0" width="25.0" height="14.0" style="fill:orange; stroke:rgb(0,0,0);" rx="1"/>
<text x="168" y="164" style="font-family:sans-serif;font-size:10px;">
text
</text>
<rect x="582.0" y="93.0" width="8.0" height="14.0" style="fill:orange; stroke:rgb(0,0,0);" rx="1"/>
<text x="584" y="102" style="font-family:sans-serif;font-size:10px;">
;
</text>
<rect x="1138.0" y="93.0" width="8.0" height="14.0" style="fill:orange; stroke:rgb(0,0,0);" rx="1"/>
<text x="1140" y="102" style="font-family:sans-serif;font-size:10px;">
;
</text>
<rect x="1534.5" y="62.0" width="71.0" height="14.0" style="fill:orange; stroke:rgb(0,0,0);" rx="1"/>
<text x="1536" y="71" style="font-family:sans-serif;font-size:10px;">
assignment
</text>
<rect x="2424.0" y="93.0" width="8.0" height="14.0" style="fill:orange; stroke:rgb(0,0,0);" rx="1"/>
<text x="2426" y="102" style="font-family:sans-serif;font-size:10px;">
;
</text>
<rect x="1457.0" y="124.0" width="8.0" height="14.0" style="fill:orange; stroke:rgb(0,0,0);" rx="1"/>
<text x="1459" y="133" style="font-family:sans-serif;font-size:10px;">
t
</text>
<rect x="877.0" y="93.0" width="50.0" height="14.0" style="fill:orange; stroke:rgb(0,0,0);" rx="1"/>
<text x="879" y="102" style="font-family:sans-serif;font-size:10px;">
tableRef
</text>
<rect x="1392.0" y="93.0" width="8.0" height="14.0" style="fill:orange; stroke:rgb(0,0,0);" rx="1"/>
<text x="1394" y="102" style="font-family:sans-serif;font-size:10px;">
]
</text>
<rect x="1540.0" y="155.0" width="10.0" height="14.0" style="fill:orange; stroke:rgb(0,0,0);" rx="1"/>
<text x="1542" y="164" style="font-family:sans-serif;font-size:10px;">
c
</text>
<rect x="2321.0" y="62.0" width="89.0" height="14.0" style="fill:orange; stroke:rgb(0,0,0);" rx="1"/>
<text x="2323" y="71" style="font-family:sans-serif;font-size:10px;">
printStatement
</text>
<rect x="1539.0" y="31.0" width="62.0" height="14.0" style="fill:orange; stroke:rgb(0,0,0);" rx="1"/>
<text x="1541" y="40" style="font-family:sans-serif;font-size:10px;">
statement
</text>
<rect x="2211.0" y="93.0" width="50.0" height="14.0" style="fill:orange; stroke:rgb(0,0,0);" rx="1"/>
<text x="2213" y="102" style="font-family:sans-serif;font-size:10px;">
tableRef
</text>
<rect x="1298.0" y="93.0" width="87.0" height="14.0" style="fill:orange; stroke:rgb(0,0,0);" rx="1"/>
<text x="1300" y="102" style="font-family:sans-serif;font-size:10px;">
expressionList
</text>
<rect x="2038.5" y="124.0" width="67.0" height="14.0" style="fill:orange; stroke:rgb(0,0,0);" rx="1"/>
<text x="2040" y="133" style="font-family:sans-serif;font-size:10px;">
expression
</text>
<rect x="510.0" y="93.0" width="8.0" height="14.0" style="fill:orange; stroke:rgb(0,0,0);" rx="1"/>
<text x="512" y="102" style="font-family:sans-serif;font-size:10px;">
:
</text>
<rect x="2010.5" y="93.0" width="8.0" height="14.0" style="fill:orange; stroke:rgb(0,0,0);" rx="1"/>
<text x="2012" y="102" style="font-family:sans-serif;font-size:10px;">
;
</text>
<rect x="1352.5" y="124.0" width="67.0" height="14.0" style="fill:orange; stroke:rgb(0,0,0);" rx="1"/>
<text x="1354" y="133" style="font-family:sans-serif;font-size:10px;">
expression
</text>
<rect x="626.5" y="31.0" width="62.0" height="14.0" style="fill:orange; stroke:rgb(0,0,0);" rx="1"/>
<text x="628" y="40" style="font-family:sans-serif;font-size:10px;">
statement
</text>
<rect x="2137.0" y="155.0" width="48.0" height="14.0" style="fill:orange; stroke:rgb(0,0,0);" rx="1"/>
<text x="2139" y="164" style="font-family:sans-serif;font-size:10px;">
primary
</text>
<rect x="0.0" y="93.0" width="28.0" height="14.0" style="fill:orange; stroke:rgb(0,0,0);" rx="1"/>
<text x="2" y="102" style="font-family:sans-serif;font-size:10px;">
type
</text>
<rect x="443.5" y="124.0" width="8.0" height="14.0" style="fill:orange; stroke:rgb(0,0,0);" rx="1"/>
<text x="445" y="133" style="font-family:sans-serif;font-size:10px;">
;
</text>
<rect x="507.0" y="62.0" width="71.0" height="14.0" style="fill:orange; stroke:rgb(0,0,0);" rx="1"/>
<text x="509" y="71" style="font-family:sans-serif;font-size:10px;">
assignment
</text>
<rect x="622.0" y="62.0" width="71.0" height="14.0" style="fill:orange; stroke:rgb(0,0,0);" rx="1"/>
<text x="624" y="71" style="font-family:sans-serif;font-size:10px;">
assignment
</text>
<rect x="1338.5" y="62.0" width="107.0" height="14.0" style="fill:orange; stroke:rgb(0,0,0);" rx="1"/>
<text x="1340" y="71" style="font-family:sans-serif;font-size:10px;">
addRowStatement
</text>
<rect x="2403.5" y="31.0" width="44.0" height="14.0" style="fill:orange; stroke:rgb(0,0,0);" rx="1"/>
<text x="2405" y="40" style="font-family:sans-serif;font-size:10px;">
&lt;EOF&gt;
</text>
<rect x="1064.0" y="31.0" width="62.0" height="14.0" style="fill:orange; stroke:rgb(0,0,0);" rx="1"/>
<text x="1066" y="40" style="font-family:sans-serif;font-size:10px;">
statement
</text>
</svg>